<svg width="138" height="138" viewBox="0 0 138 138" fill="none" xmlns="http://www.w3.org/2000/svg">
<g style="mix-blend-mode:luminosity">
<path d="M29.4616 64.9702L23.7568 68.264V74.8515L29.4616 78.1468L35.1649 74.853V68.264L29.4616 64.9702Z" fill="#51B187"/>
<mask id="mask0_2021_7155" style="mask-type:luminance" maskUnits="userSpaceOnUse" x="43" y="62" width="5" height="5">
<path d="M47.1142 62.1709V66.1228L43.6895 64.1468L47.1142 62.1709Z" fill="white"/>
</mask>
<g mask="url(#mask0_2021_7155)">
<path d="M44.4461 60.7517L48.7536 63.0427L46.3597 67.542L42.0522 65.251L44.4461 60.7517Z" fill="url(#paint0_linear_2021_7155)"/>
</g>
<mask id="mask1_2021_7155" style="mask-type:luminance" maskUnits="userSpaceOnUse" x="43" y="76" width="4" height="5">
<path d="M46.9426 76.1709V80.1228L43.5178 78.1468L46.9426 76.1709Z" fill="white"/>
</mask>
<g mask="url(#mask1_2021_7155)">
<path d="M44.2727 74.7517L48.5802 77.0427L46.1863 81.542L41.8804 79.251L44.2727 74.7517Z" fill="url(#paint1_linear_2021_7155)"/>
</g>
<mask id="mask2_2021_7155" style="mask-type:luminance" maskUnits="userSpaceOnUse" x="42" y="72" width="4" height="5">
<path d="M45.4376 74.8514L42.0144 76.8289V72.8755L45.4376 74.8514Z" fill="white"/>
</mask>
<g mask="url(#mask2_2021_7155)">
<path d="M42.7691 71.4563L47.0766 73.7473L44.6827 78.2481L40.3752 75.9571L42.7691 71.4563Z" fill="url(#paint2_linear_2021_7155)"/>
</g>
<mask id="mask3_2021_7155" style="mask-type:luminance" maskUnits="userSpaceOnUse" x="44" y="69" width="4" height="5">
<path d="M47.5758 69.376V73.3279L44.1526 71.3519L47.5758 69.376Z" fill="white"/>
</mask>
<g mask="url(#mask3_2021_7155)">
<path d="M44.9076 67.9568L49.215 70.2478L46.8211 74.7486L42.5137 72.4561L44.9076 67.9568Z" fill="url(#paint3_linear_2021_7155)"/>
</g>
<mask id="mask4_2021_7155" style="mask-type:luminance" maskUnits="userSpaceOnUse" x="36" y="80" width="4" height="5">
<path d="M39.7312 80.0791V84.031L36.3096 82.0566L39.7312 80.0791Z" fill="white"/>
</mask>
<g mask="url(#mask4_2021_7155)">
<path d="M37.0646 78.6599L41.3705 80.9509L38.9766 85.4517L34.6707 83.1592L37.0646 78.6599Z" fill="url(#paint4_linear_2021_7155)"/>
</g>
<mask id="mask5_2021_7155" style="mask-type:luminance" maskUnits="userSpaceOnUse" x="35" y="72" width="6" height="6">
<path d="M40.3006 77.4872L35.7358 74.8532L40.3006 72.2175V77.4872Z" fill="white"/>
</mask>
<g mask="url(#mask5_2021_7155)">
<path d="M36.7434 70.3242L42.4872 73.3794L39.2948 79.3805L33.551 76.3253L36.7434 70.3242Z" fill="url(#paint5_linear_2021_7155)"/>
</g>
<mask id="mask6_2021_7155" style="mask-type:luminance" maskUnits="userSpaceOnUse" x="35" y="75" width="6" height="6">
<path d="M40.3021 78.1468L35.7373 80.7824V75.5127L40.3021 78.1468Z" fill="white"/>
</mask>
<g mask="url(#mask6_2021_7155)">
<path d="M36.7449 73.6194L42.4871 76.6745L39.2947 82.6757L33.5525 79.6205L36.7449 73.6194Z" fill="url(#paint6_linear_2021_7155)"/>
</g>
<mask id="mask7_2021_7155" style="mask-type:luminance" maskUnits="userSpaceOnUse" x="35" y="68" width="6" height="7">
<path d="M40.3006 71.5592L35.7358 74.1933V68.9236L40.3006 71.5592Z" fill="white"/>
</mask>
<g mask="url(#mask7_2021_7155)">
<path d="M36.7433 67.0317L42.4856 70.0853L39.2932 76.0849L33.5525 73.0313L36.7433 67.0317Z" fill="url(#paint7_linear_2021_7155)"/>
</g>
<mask id="mask8_2021_7155" style="mask-type:luminance" maskUnits="userSpaceOnUse" x="37" y="84" width="4" height="5">
<path d="M40.6528 86.7914L37.2312 88.7689V84.8154L40.6528 86.7914Z" fill="white"/>
</mask>
<g mask="url(#mask8_2021_7155)">
<path d="M37.9859 83.3977L42.2918 85.6871L39.8979 90.188L35.592 87.897L37.9859 83.3977Z" fill="url(#paint8_linear_2021_7155)"/>
</g>
<mask id="mask9_2021_7155" style="mask-type:luminance" maskUnits="userSpaceOnUse" x="29" y="68" width="7" height="7">
<path d="M35.1649 74.853L29.4617 71.5592L35.1649 68.2639V74.853Z" fill="white"/>
</mask>
<g mask="url(#mask9_2021_7155)">
<path d="M30.7188 65.8982L37.8974 69.7175L33.9081 77.2189L26.7295 73.3996L30.7188 65.8982Z" fill="url(#paint9_linear_2021_7155)"/>
</g>
<mask id="mask10_2021_7155" style="mask-type:luminance" maskUnits="userSpaceOnUse" x="30" y="79" width="5" height="6">
<path d="M34.5957 82.1861L30.0325 84.8217V79.552L34.5957 82.1861Z" fill="white"/>
</mask>
<g mask="url(#mask10_2021_7155)">
<path d="M31.0385 77.6602L36.7807 80.7137L33.5899 86.7133L27.8477 83.6597L31.0385 77.6602Z" fill="url(#paint10_linear_2021_7155)"/>
</g>
<mask id="mask11_2021_7155" style="mask-type:luminance" maskUnits="userSpaceOnUse" x="30" y="86" width="5" height="5">
<path d="M30.6033 90.6199L34.0249 88.644L30.6033 86.6665V90.6199Z" fill="white"/>
</mask>
<g mask="url(#mask11_2021_7155)">
<path d="M31.358 85.2473L35.6639 87.5383L33.27 92.0391L28.9641 89.7482L31.358 85.2473Z" fill="url(#paint11_linear_2021_7155)"/>
</g>
<mask id="mask12_2021_7155" style="mask-type:luminance" maskUnits="userSpaceOnUse" x="42" y="80" width="5" height="5">
<path d="M46.3951 82.5338L42.9719 84.5113V80.5579L46.3951 82.5338Z" fill="white"/>
</mask>
<g mask="url(#mask12_2021_7155)">
<path d="M44.1073 78.9468L48.2557 81.8694L45.2598 86.1238L41.1099 83.1996L44.1073 78.9468Z" fill="url(#paint12_linear_2021_7155)"/>
</g>
<mask id="mask13_2021_7155" style="mask-type:luminance" maskUnits="userSpaceOnUse" x="42" y="66" width="4" height="5">
<path d="M45.4376 68.264L42.0144 70.2415V66.2881L45.4376 68.264Z" fill="white"/>
</mask>
<g mask="url(#mask13_2021_7155)">
<path d="M43.1497 64.677L47.2981 67.5996L44.3022 71.8525L40.1538 68.9299L43.1497 64.677Z" fill="url(#paint13_linear_2021_7155)"/>
</g>
<mask id="mask14_2021_7155" style="mask-type:luminance" maskUnits="userSpaceOnUse" x="35" y="65" width="6" height="6">
<path d="M40.3006 65.6299V70.8996L35.7358 68.2639L40.3006 65.6299Z" fill="white"/>
</mask>
<g mask="url(#mask14_2021_7155)">
<path d="M37.2503 63.481L42.782 67.3767L38.788 73.0488L33.2563 69.1515L37.2503 63.481Z" fill="url(#paint14_linear_2021_7155)"/>
</g>
<mask id="mask15_2021_7155" style="mask-type:luminance" maskUnits="userSpaceOnUse" x="30" y="83" width="5" height="5">
<path d="M34.0265 83.0906V87.044L30.6033 85.0665L34.0265 83.0906Z" fill="white"/>
</mask>
<g mask="url(#mask15_2021_7155)">
<path d="M31.7387 81.4795L35.887 84.4021L32.8912 88.655L28.7412 85.7324L31.7387 81.4795Z" fill="url(#paint15_linear_2021_7155)"/>
</g>
<mask id="mask16_2021_7155" style="mask-type:luminance" maskUnits="userSpaceOnUse" x="30" y="76" width="5" height="6">
<path d="M34.5941 81.528L30.0325 78.8939L34.5941 76.2583V81.528Z" fill="white"/>
</mask>
<g mask="url(#mask16_2021_7155)">
<path d="M31.5454 74.1094L37.0771 78.0051L33.0815 83.6772L27.5498 79.7799L31.5454 74.1094Z" fill="url(#paint16_linear_2021_7155)"/>
</g>
<mask id="mask17_2021_7155" style="mask-type:luminance" maskUnits="userSpaceOnUse" x="29" y="71" width="7" height="8">
<path d="M29.4617 71.5593L35.1649 74.8531L29.4617 78.1468V71.5593Z" fill="white"/>
</mask>
<g mask="url(#mask17_2021_7155)">
<path d="M31.3535 68.8723L38.267 73.7443L33.2733 80.8324L26.3599 75.962L31.3535 68.8723Z" fill="url(#paint17_linear_2021_7155)"/>
</g>
<mask id="mask18_2021_7155" style="mask-type:luminance" maskUnits="userSpaceOnUse" x="42" y="58" width="5" height="5">
<path d="M46.052 60.2369L42.6304 62.2129V58.261L46.052 60.2369Z" fill="white"/>
</mask>
<g mask="url(#mask18_2021_7155)">
<path d="M42.384 62.1973L42.6429 58.0474L46.2985 58.2766L46.0396 62.425L42.384 62.1973Z" fill="url(#paint18_linear_2021_7155)"/>
</g>
<mask id="mask19_2021_7155" style="mask-type:luminance" maskUnits="userSpaceOnUse" x="37" y="52" width="4" height="5">
<path d="M40.4439 54.4713L37.0208 56.4472L37.0223 52.4954L40.4439 54.4713Z" fill="white"/>
</mask>
<g mask="url(#mask19_2021_7155)">
<path d="M36.7744 56.4317L37.0349 52.2817L40.6904 52.5094L40.4315 56.6609L36.7744 56.4317Z" fill="url(#paint19_linear_2021_7155)"/>
</g>
<mask id="mask20_2021_7155" style="mask-type:luminance" maskUnits="userSpaceOnUse" x="35" y="62" width="6" height="6">
<path d="M40.3022 64.9703L35.7358 67.6044V62.3347L40.3022 64.9703Z" fill="white"/>
</mask>
<g mask="url(#mask20_2021_7155)">
<path d="M35.4084 67.5841L35.7547 62.0493L40.6298 62.355L40.2851 67.8898L35.4084 67.5841Z" fill="url(#paint20_linear_2021_7155)"/>
</g>
<mask id="mask21_2021_7155" style="mask-type:luminance" maskUnits="userSpaceOnUse" x="30" y="55" width="5" height="4">
<path d="M34.0249 58.9973L30.6033 57.0213L34.0249 55.0454V58.9973Z" fill="white"/>
</mask>
<g mask="url(#mask21_2021_7155)">
<path d="M30.3569 58.9833L30.6158 54.8318L34.2714 55.061L34.0109 59.211L30.3569 58.9833Z" fill="url(#paint21_linear_2021_7155)"/>
</g>
<mask id="mask22_2021_7155" style="mask-type:luminance" maskUnits="userSpaceOnUse" x="30" y="61" width="5" height="6">
<path d="M34.5957 61.5891V66.8588L30.0325 64.2247L34.5957 61.5891Z" fill="white"/>
</mask>
<g mask="url(#mask22_2021_7155)">
<path d="M29.7036 66.8384L30.0498 61.3052L34.9234 61.6093L34.5787 67.1441L29.7036 66.8384Z" fill="url(#paint22_linear_2021_7155)"/>
</g>
<mask id="mask23_2021_7155" style="mask-type:luminance" maskUnits="userSpaceOnUse" x="23" y="64" width="7" height="8">
<path d="M29.4616 64.9702V71.5593L23.7568 68.264L29.4616 64.9702Z" fill="white"/>
</mask>
<g mask="url(#mask23_2021_7155)">
<path d="M23.3467 71.5329L23.7787 64.6147L29.8718 64.9953L29.4383 71.9134L23.3467 71.5329Z" fill="url(#paint23_linear_2021_7155)"/>
</g>
<mask id="mask24_2021_7155" style="mask-type:luminance" maskUnits="userSpaceOnUse" x="24" y="58" width="5" height="6">
<path d="M28.891 63.5636L24.3262 60.9296L28.891 58.2939V63.5636Z" fill="white"/>
</mask>
<g mask="url(#mask24_2021_7155)">
<path d="M23.9985 63.5433L24.3448 58.01L29.2199 58.3157L28.8737 63.8489L23.9985 63.5433Z" fill="url(#paint24_linear_2021_7155)"/>
</g>
<mask id="mask25_2021_7155" style="mask-type:luminance" maskUnits="userSpaceOnUse" x="24" y="51" width="5" height="5">
<path d="M28.32 51.75L24.8953 53.7259L28.32 55.7019V51.75Z" fill="white"/>
</mask>
<g mask="url(#mask25_2021_7155)">
<path d="M24.6489 55.6878L24.9094 51.5378L28.5649 51.7655L28.3061 55.9155L24.6489 55.6878Z" fill="url(#paint25_linear_2021_7155)"/>
</g>
<mask id="mask26_2021_7155" style="mask-type:luminance" maskUnits="userSpaceOnUse" x="18" y="62" width="6" height="6">
<path d="M23.1847 67.6044L18.6199 64.9688L23.1847 62.3347V67.6044Z" fill="white"/>
</mask>
<g mask="url(#mask26_2021_7155)">
<path d="M18.2925 67.584L18.6387 62.0508L23.5123 62.3549L23.1661 67.8897L18.2925 67.584Z" fill="url(#paint26_linear_2021_7155)"/>
</g>
<mask id="mask27_2021_7155" style="mask-type:luminance" maskUnits="userSpaceOnUse" x="17" y="54" width="5" height="5">
<path d="M21.349 54.7568V58.7103L17.9258 56.7343L21.349 54.7568Z" fill="white"/>
</mask>
<g mask="url(#mask27_2021_7155)">
<path d="M17.6792 58.6947L17.9381 54.5432L21.5937 54.7725L21.3348 58.924L17.6792 58.6947Z" fill="url(#paint27_linear_2021_7155)"/>
</g>
<mask id="mask28_2021_7155" style="mask-type:luminance" maskUnits="userSpaceOnUse" x="36" y="59" width="4" height="5">
<path d="M39.7312 63.038L36.3064 61.0605L39.7312 59.083V63.038Z" fill="white"/>
</mask>
<g mask="url(#mask28_2021_7155)">
<path d="M39.7312 59.083H36.3064V63.038H39.7312V59.083Z" fill="url(#paint28_linear_2021_7155)"/>
</g>
<mask id="mask29_2021_7155" style="mask-type:luminance" maskUnits="userSpaceOnUse" x="30" y="51" width="5" height="5">
<path d="M30.6033 51.75V55.7019L34.0249 53.7259L30.6033 51.75Z" fill="white"/>
</mask>
<g mask="url(#mask29_2021_7155)">
<path d="M34.0249 51.75H30.6033V55.7019H34.0249V51.75Z" fill="url(#paint29_linear_2021_7155)"/>
</g>
<mask id="mask30_2021_7155" style="mask-type:luminance" maskUnits="userSpaceOnUse" x="30" y="58" width="5" height="6">
<path d="M34.5957 60.9295L30.0325 63.5635V58.2954L34.5957 60.9295Z" fill="white"/>
</mask>
<g mask="url(#mask30_2021_7155)">
<path d="M34.5957 58.2954H30.0325V63.5651H34.5957V58.2954Z" fill="url(#paint30_linear_2021_7155)"/>
</g>
<mask id="mask31_2021_7155" style="mask-type:luminance" maskUnits="userSpaceOnUse" x="29" y="64" width="7" height="8">
<path d="M35.1649 68.264L29.4617 71.5593V64.9702L35.1649 68.264Z" fill="white"/>
</mask>
<g mask="url(#mask31_2021_7155)">
<path d="M35.1665 64.9702H29.4617V71.5577H35.1665V64.9702Z" fill="url(#paint31_linear_2021_7155)"/>
</g>
<mask id="mask32_2021_7155" style="mask-type:luminance" maskUnits="userSpaceOnUse" x="24" y="56" width="5" height="5">
<path d="M28.3217 58.1363L24.897 60.1123V56.1604L28.3217 58.1363Z" fill="white"/>
</mask>
<g mask="url(#mask32_2021_7155)">
<path d="M28.3217 56.1604H24.897V60.1138H28.3217V56.1604Z" fill="url(#paint32_linear_2021_7155)"/>
</g>
<mask id="mask33_2021_7155" style="mask-type:luminance" maskUnits="userSpaceOnUse" x="24" y="61" width="5" height="6">
<path d="M28.891 64.2247L24.3262 66.8588V61.5891L28.891 64.2247Z" fill="white"/>
</mask>
<g mask="url(#mask33_2021_7155)">
<path d="M28.8894 61.5891H24.3262V66.8604H28.8894V61.5891Z" fill="url(#paint33_linear_2021_7155)"/>
</g>
<mask id="mask34_2021_7155" style="mask-type:luminance" maskUnits="userSpaceOnUse" x="19" y="59" width="4" height="5">
<path d="M22.6136 61.0604L19.1904 63.0364V59.0845L22.6136 61.0604Z" fill="white"/>
</mask>
<g mask="url(#mask34_2021_7155)">
<path d="M22.6136 59.0845H19.1904V63.0364H22.6136V59.0845Z" fill="url(#paint34_linear_2021_7155)"/>
</g>
<mask id="mask35_2021_7155" style="mask-type:luminance" maskUnits="userSpaceOnUse" x="11" y="60" width="5" height="5">
<path d="M11.842 62.0509L15.2668 64.0268V60.075L11.842 62.0509Z" fill="white"/>
</mask>
<g mask="url(#mask35_2021_7155)">
<path d="M15.2652 60.075H11.842V64.0284H15.2652V60.075Z" fill="url(#paint35_linear_2021_7155)"/>
</g>
<mask id="mask36_2021_7155" style="mask-type:luminance" maskUnits="userSpaceOnUse" x="24" y="86" width="5" height="5">
<path d="M24.8953 88.644L28.32 90.6199V86.6665L24.8953 88.644Z" fill="white"/>
</mask>
<g mask="url(#mask36_2021_7155)">
<path d="M29.9762 89.7216L25.6735 92.0547L23.239 87.5648L27.5418 85.2317L29.9762 89.7216Z" fill="url(#paint36_linear_2021_7155)"/>
</g>
<mask id="mask37_2021_7155" style="mask-type:luminance" maskUnits="userSpaceOnUse" x="23" y="71" width="7" height="8">
<path d="M29.4616 71.5593V78.1468L23.7568 74.8515L29.4616 71.5593Z" fill="white"/>
</mask>
<g mask="url(#mask37_2021_7155)">
<path d="M32.2219 76.6511L25.0512 80.5375L20.9963 73.0548L28.1656 69.1685L32.2219 76.6511Z" fill="url(#paint37_linear_2021_7155)"/>
</g>
<mask id="mask38_2021_7155" style="mask-type:luminance" maskUnits="userSpaceOnUse" x="19" y="85" width="4" height="4">
<path d="M22.6136 85.0198V88.9732L19.1904 86.9973L22.6136 85.0198Z" fill="white"/>
</mask>
<g mask="url(#mask38_2021_7155)">
<path d="M24.2701 88.0749L19.9673 90.4064L17.5344 85.918L21.8356 83.585L24.2701 88.0749Z" fill="url(#paint38_linear_2021_7155)"/>
</g>
<mask id="mask39_2021_7155" style="mask-type:luminance" maskUnits="userSpaceOnUse" x="18" y="72" width="6" height="6">
<path d="M23.1831 74.8532L18.6199 77.4872V72.2175L23.1831 74.8532Z" fill="white"/>
</mask>
<g mask="url(#mask39_2021_7155)">
<path d="M25.3917 76.2909L19.6573 79.3991L16.4119 73.4136L22.1479 70.3054L25.3917 76.2909Z" fill="url(#paint39_linear_2021_7155)"/>
</g>
<mask id="mask40_2021_7155" style="mask-type:luminance" maskUnits="userSpaceOnUse" x="18" y="65" width="6" height="6">
<path d="M23.1831 68.2639L18.6199 70.8996V65.6299L23.1831 68.2639Z" fill="white"/>
</mask>
<g mask="url(#mask40_2021_7155)">
<path d="M25.3916 69.7017L19.6572 72.8115L16.4133 66.8259L22.1478 63.7178L25.3916 69.7017Z" fill="url(#paint40_linear_2021_7155)"/>
</g>
<mask id="mask41_2021_7155" style="mask-type:luminance" maskUnits="userSpaceOnUse" x="12" y="81" width="5" height="5">
<path d="M16.2914 81.3518V85.3021L12.8682 83.3277L16.2914 81.3518Z" fill="white"/>
</mask>
<g mask="url(#mask41_2021_7155)">
<path d="M17.9475 84.4054L13.6463 86.7369L11.2134 82.2485L15.5146 79.917L17.9475 84.4054Z" fill="url(#paint41_linear_2021_7155)"/>
</g>
<mask id="mask42_2021_7155" style="mask-type:luminance" maskUnits="userSpaceOnUse" x="13" y="66" width="4" height="5">
<path d="M16.9073 66.1509V70.1043L13.4841 68.1284L16.9073 66.1509Z" fill="white"/>
</mask>
<g mask="url(#mask42_2021_7155)">
<path d="M18.5635 69.206L14.2608 71.5391L11.8279 67.0491L16.1307 64.7161L18.5635 69.206Z" fill="url(#paint42_linear_2021_7155)"/>
</g>
<mask id="mask43_2021_7155" style="mask-type:luminance" maskUnits="userSpaceOnUse" x="11" y="69" width="4" height="5">
<path d="M11.5005 73.7053L14.9237 71.7294L11.5005 69.7534V73.7053Z" fill="white"/>
</mask>
<g mask="url(#mask43_2021_7155)">
<path d="M16.5801 72.807L12.2788 75.14L9.84595 70.6517L14.1472 68.3186L16.5801 72.807Z" fill="url(#paint43_linear_2021_7155)"/>
</g>
<mask id="mask44_2021_7155" style="mask-type:luminance" maskUnits="userSpaceOnUse" x="24" y="79" width="5" height="6">
<path d="M28.8892 84.8215L24.3245 82.1859L28.8892 79.5503V84.8215Z" fill="white"/>
</mask>
<g mask="url(#mask44_2021_7155)">
<path d="M31.1802 83.488L25.48 86.8051L22.0334 80.8836L27.7351 77.5664L31.1802 83.488Z" fill="url(#paint44_linear_2021_7155)"/>
</g>
<mask id="mask45_2021_7155" style="mask-type:luminance" maskUnits="userSpaceOnUse" x="23" y="68" width="7" height="7">
<path d="M29.4616 71.5592L23.7568 74.8514V68.2639L29.4616 71.5592Z" fill="white"/>
</mask>
<g mask="url(#mask45_2021_7155)">
<path d="M32.3249 73.1843L25.1993 77.3311L20.8918 69.9295L28.0174 65.7827L32.3249 73.1843Z" fill="url(#paint45_linear_2021_7155)"/>
</g>
<mask id="mask46_2021_7155" style="mask-type:luminance" maskUnits="userSpaceOnUse" x="24" y="83" width="5" height="5">
<path d="M28.32 85.3505L24.8953 87.328V83.3745L28.32 85.3505Z" fill="white"/>
</mask>
<g mask="url(#mask46_2021_7155)">
<path d="M30.0385 86.3268L25.7622 88.8159L23.1765 84.3743L27.4528 81.8853L30.0385 86.3268Z" fill="url(#paint46_linear_2021_7155)"/>
</g>
<mask id="mask47_2021_7155" style="mask-type:luminance" maskUnits="userSpaceOnUse" x="24" y="76" width="5" height="6">
<path d="M28.8894 78.8922L24.3262 81.5278V76.2566L28.8894 78.8922Z" fill="white"/>
</mask>
<g mask="url(#mask47_2021_7155)">
<path d="M31.1802 80.1945L25.48 83.5117L22.0334 77.5901L27.7336 74.2729L31.1802 80.1945Z" fill="url(#paint47_linear_2021_7155)"/>
</g>
<mask id="mask48_2021_7155" style="mask-type:luminance" maskUnits="userSpaceOnUse" x="19" y="80" width="4" height="5">
<path d="M22.6136 82.0565L19.1904 84.0309V80.0806L22.6136 82.0565Z" fill="white"/>
</mask>
<g mask="url(#mask48_2021_7155)">
<path d="M24.3308 83.0328L20.0561 85.5203L17.4719 81.0802L21.7466 78.5928L24.3308 83.0328Z" fill="url(#paint48_linear_2021_7155)"/>
</g>
<mask id="mask49_2021_7155" style="mask-type:luminance" maskUnits="userSpaceOnUse" x="18" y="75" width="6" height="6">
<path d="M23.1831 75.5127V80.7808L18.6199 78.1468L23.1831 75.5127Z" fill="white"/>
</mask>
<g mask="url(#mask49_2021_7155)">
<path d="M25.4742 79.4491L19.774 82.7647L16.3306 76.8446L22.0291 73.5291L25.4742 79.4491Z" fill="url(#paint49_linear_2021_7155)"/>
</g>
<mask id="mask50_2021_7155" style="mask-type:luminance" maskUnits="userSpaceOnUse" x="18" y="68" width="6" height="7">
<path d="M23.1831 68.9221V74.1903L18.6199 71.5593L23.1831 68.9221Z" fill="white"/>
</mask>
<g mask="url(#mask50_2021_7155)">
<path d="M25.4742 72.8585L19.774 76.1741L16.3306 70.2541L22.0291 66.9385L25.4742 72.8585Z" fill="url(#paint50_linear_2021_7155)"/>
</g>
<mask id="mask51_2021_7155" style="mask-type:luminance" maskUnits="userSpaceOnUse" x="13" y="72" width="4" height="5">
<path d="M16.9073 76.8289L13.4841 74.853L16.9073 72.8755V76.8289Z" fill="white"/>
</mask>
<g mask="url(#mask51_2021_7155)">
<path d="M18.6258 75.8293L14.3495 78.3183L11.7654 73.8767L16.0416 71.3877L18.6258 75.8293Z" fill="url(#paint51_linear_2021_7155)"/>
</g>
<mask id="mask52_2021_7155" style="mask-type:luminance" maskUnits="userSpaceOnUse" x="11" y="62" width="5" height="5">
<path d="M11.639 66.9477L15.0622 64.9702L11.6375 62.9927L11.639 66.9477Z" fill="white"/>
</mask>
<g mask="url(#mask52_2021_7155)">
<path d="M16.7809 65.9465L12.5031 68.4355L9.91895 63.9939L14.1952 61.5049L16.7809 65.9465Z" fill="url(#paint52_linear_2021_7155)"/>
</g>
<mask id="mask53_2021_7155" style="mask-type:luminance" maskUnits="userSpaceOnUse" x="11" y="76" width="5" height="5">
<path d="M11.842 80.363L15.2668 78.387L11.842 76.408V80.363Z" fill="white"/>
</mask>
<g mask="url(#mask53_2021_7155)">
<path d="M16.9855 79.3633L12.7093 81.8523L10.1235 77.4092L14.3998 74.9202L16.9855 79.3633Z" fill="url(#paint53_linear_2021_7155)"/>
</g>
<path d="M57.7626 86.6181C57.6332 86.5245 57.4834 86.4497 57.3166 86.3951C57.1497 86.3405 56.9797 86.2922 56.8035 86.2516C56.6272 86.2111 56.4573 86.1736 56.2904 86.1393C56.1235 86.105 55.9738 86.0613 55.8412 86.0083C55.7087 85.9553 55.6042 85.8867 55.5247 85.8025C55.4451 85.7198 55.4046 85.6106 55.4046 85.4765C55.4046 85.3346 55.4326 85.2161 55.4872 85.1209C55.5418 85.0243 55.6151 84.9494 55.7071 84.8917C55.7991 84.8356 55.9036 84.7934 56.0221 84.77C56.1391 84.7451 56.2592 84.7326 56.3824 84.7326C56.6834 84.7326 56.9314 84.8028 57.1247 84.9432C57.3181 85.0835 57.4304 85.3097 57.4632 85.6231H58.0121C58.0043 85.383 57.9575 85.1771 57.8718 85.004C57.786 84.8309 57.6737 84.6874 57.5302 84.5735C57.3867 84.4597 57.2214 84.377 57.0296 84.3225C56.8378 84.2694 56.6304 84.2429 56.4058 84.2429C56.2077 84.2429 56.0128 84.2694 55.8241 84.3193C55.6354 84.3708 55.4654 84.4472 55.3172 84.5502C55.1691 84.6546 55.049 84.7856 54.9617 84.9478C54.8712 85.1085 54.826 85.2987 54.826 85.5186C54.826 85.7167 54.8665 85.882 54.9461 86.013C55.0256 86.1424 55.1316 86.2501 55.2626 86.3374C55.3952 86.4232 55.5449 86.4902 55.7118 86.5417C55.8787 86.5932 56.0502 86.6368 56.2249 86.6727C56.3996 86.7101 56.5711 86.7475 56.738 86.7865C56.9048 86.8255 57.053 86.8739 57.184 86.9331C57.3134 86.9924 57.4195 87.0688 57.499 87.1624C57.5786 87.256 57.6176 87.3792 57.6176 87.5289C57.6176 87.688 57.5848 87.819 57.5209 87.9188C57.4554 88.0201 57.3696 88.1012 57.2635 88.1605C57.1575 88.2198 57.039 88.2619 56.908 88.2853C56.7754 88.3102 56.6444 88.3227 56.5134 88.3227C56.3465 88.3227 56.1875 88.3024 56.0346 88.2619C55.8818 88.2213 55.7477 88.1589 55.6323 88.0732C55.5169 87.9874 55.4233 87.8782 55.3515 87.7472C55.2798 87.6147 55.2455 87.4571 55.2455 87.2747H54.6965C54.6965 87.5398 54.7449 87.7691 54.84 87.9609C54.9351 88.1543 55.0646 88.3133 55.2299 88.4397C55.3952 88.566 55.5855 88.6596 55.8038 88.7204C56.0221 88.7812 56.253 88.8124 56.4962 88.8124C56.6959 88.8124 56.8955 88.7874 57.0967 88.7391C57.2978 88.6907 57.4803 88.6143 57.6425 88.5098C57.8047 88.4069 57.9373 88.2728 58.0418 88.1075C58.1447 87.9437 58.1977 87.7441 58.1977 87.5117C58.1977 87.3012 58.1587 87.1234 58.0776 86.9784C57.9981 86.8302 57.8936 86.7117 57.7626 86.6181Z" fill="#9D9D9D"/>
<path d="M61.306 88.2353C61.2919 88.1792 61.2857 88.0887 61.2857 87.9671V86.3436C61.2857 86.1611 61.2514 86.0129 61.1812 85.8991C61.1126 85.7852 61.0206 85.6964 60.9067 85.6324C60.7929 85.57 60.665 85.5279 60.5246 85.5077C60.3843 85.4874 60.2439 85.478 60.1005 85.478C59.9258 85.478 59.7589 85.4967 59.5998 85.5326C59.4408 85.57 59.3004 85.6293 59.1788 85.712C59.0571 85.7962 58.9589 85.9038 58.8856 86.0395C58.8123 86.1736 58.7717 86.3389 58.7639 86.5338H59.2817C59.2942 86.3015 59.3737 86.144 59.5187 86.0613C59.6653 85.9771 59.8478 85.9365 60.0693 85.9365C60.1504 85.9365 60.2315 85.9428 60.3157 85.9552C60.3999 85.9677 60.4747 85.9927 60.5418 86.0285C60.6089 86.066 60.6634 86.1174 60.7071 86.1876C60.7492 86.2562 60.7711 86.3483 60.7711 86.4621C60.7711 86.5603 60.743 86.6336 60.6853 86.6851C60.6276 86.7366 60.5512 86.7756 60.4529 86.8005C60.3547 86.827 60.2424 86.8473 60.1145 86.8613C59.9866 86.8754 59.8509 86.8972 59.709 86.9253C59.5749 86.9502 59.4439 86.9814 59.3144 87.0189C59.1866 87.0578 59.0727 87.1109 58.9729 87.181C58.8731 87.2497 58.792 87.3417 58.7312 87.4555C58.6704 87.5694 58.6392 87.716 58.6392 87.8953C58.6392 88.0544 58.6672 88.1885 58.7218 88.3008C58.7764 88.4131 58.8497 88.5051 58.9448 88.5753C59.0384 88.6455 59.1491 88.6985 59.277 88.7312C59.4049 88.764 59.5406 88.7811 59.6841 88.7811C59.9039 88.7811 60.1083 88.7422 60.297 88.6657C60.4857 88.5878 60.6525 88.4646 60.7944 88.293C60.7944 88.463 60.8334 88.5878 60.913 88.6657C60.9925 88.7422 61.0986 88.7811 61.2327 88.7811C61.3871 88.7811 61.5118 88.7531 61.6054 88.6954V88.293C61.5493 88.3133 61.4947 88.3226 61.4463 88.3226C61.3668 88.3211 61.32 88.2914 61.306 88.2353ZM60.7664 87.6068C60.7664 87.6801 60.7477 87.7581 60.7118 87.8407C60.6744 87.9249 60.6182 88.0014 60.5402 88.0731C60.4638 88.1448 60.364 88.2025 60.2408 88.2493C60.1192 88.2961 59.9726 88.3195 59.8026 88.3195C59.7215 88.3195 59.6435 88.3117 59.5702 88.2946C59.4969 88.279 59.433 88.2525 59.3768 88.215C59.3222 88.1776 59.277 88.1308 59.2427 88.0715C59.2084 88.0138 59.1912 87.9405 59.1912 87.8548C59.1912 87.7565 59.2084 87.6754 59.2427 87.6099C59.277 87.5444 59.3222 87.4914 59.3799 87.4477C59.4361 87.4056 59.5047 87.3713 59.5811 87.3479C59.6575 87.323 59.7386 87.3027 59.8244 87.2871C59.9102 87.2699 59.9975 87.2575 60.0895 87.2465C60.1815 87.2372 60.2673 87.2247 60.3484 87.2091C60.4295 87.1951 60.5075 87.1779 60.5808 87.1576C60.6541 87.1374 60.7149 87.1093 60.7633 87.0719V87.6068H60.7664Z" fill="#9D9D9D"/>
<path d="M64.1832 87.3325C64.1832 87.4744 64.1645 87.6069 64.1255 87.727C64.0865 87.8471 64.0288 87.9516 63.9509 88.0405C63.8729 88.1309 63.7778 88.1996 63.6608 88.2479C63.5454 88.2963 63.4066 88.3212 63.2491 88.3212C63.051 88.3212 62.8935 88.2635 62.7796 88.1497C62.6658 88.0358 62.6081 87.8814 62.6081 87.6849V85.5499H62.0903V87.6241C62.0903 87.7956 62.1075 87.95 62.1418 88.0904C62.1761 88.2308 62.2354 88.3524 62.3227 88.4538C62.4085 88.5551 62.5192 88.6347 62.658 88.6908C62.7952 88.7485 62.9699 88.7766 63.1758 88.7766C63.4035 88.7766 63.6046 88.7298 63.7778 88.6362C63.9509 88.5427 64.0912 88.3976 64.202 88.2027H64.2129V88.7033H64.701V85.5483H64.1817V87.3325H64.1832Z" fill="#9D9D9D"/>
<path d="M67.7826 85.9709H67.7701C67.714 85.8773 67.6438 85.7993 67.5596 85.737C67.4753 85.673 67.388 85.6231 67.2944 85.5841C67.2009 85.5451 67.1073 85.5186 67.0137 85.5015C66.9201 85.4859 66.8328 85.4765 66.7517 85.4765C66.5115 85.4765 66.301 85.5202 66.1201 85.6075C65.9392 85.6949 65.7879 85.8149 65.6694 85.9647C65.5493 86.1159 65.4589 86.289 65.4012 86.4855C65.3419 86.6836 65.3123 86.8941 65.3123 87.1172C65.3123 87.3402 65.3434 87.5523 65.4027 87.7519C65.4651 87.95 65.554 88.1262 65.6741 88.279C65.7942 88.4318 65.9439 88.5535 66.1248 88.6424C66.3057 88.7313 66.5193 88.7765 66.7626 88.7765C66.9825 88.7765 67.1837 88.7375 67.3662 88.6564C67.5502 88.5769 67.6828 88.4506 67.7685 88.2743H67.781V88.7017H68.2988V84.3474H67.781V85.9709H67.7826ZM67.7483 87.5648C67.714 87.7067 67.6578 87.8345 67.5798 87.9468C67.5034 88.0591 67.4036 88.1496 67.2804 88.2182C67.1572 88.2868 67.0106 88.3227 66.8344 88.3227C66.6675 88.3227 66.5225 88.2899 66.3977 88.2244C66.2729 88.1589 66.1731 88.0716 66.0936 87.9609C66.0141 87.8517 65.9548 87.7269 65.9174 87.585C65.8784 87.4447 65.8597 87.3027 65.8597 87.1546C65.8597 87.0002 65.8753 86.8505 65.908 86.7039C65.9408 86.5573 65.9938 86.4263 66.0671 86.314C66.1404 86.2001 66.2371 86.1081 66.3572 86.0395C66.4772 85.9709 66.627 85.935 66.8063 85.935C66.9856 85.935 67.1369 85.9693 67.2632 86.0364C67.3896 86.1035 67.4925 86.1923 67.5705 86.3015C67.65 86.4122 67.7077 86.5401 67.7451 86.6836C67.7826 86.8286 67.7997 86.9768 67.7997 87.1328C67.8013 87.2778 67.7841 87.4228 67.7483 87.5648Z" fill="#9D9D9D"/>
<path d="M69.6512 85.5498H69.1318V88.7048H69.6512V85.5498Z" fill="#9D9D9D"/>
<path d="M73.7323 84.3491H72.2383V88.7065H73.7323C74.0941 88.7065 74.4076 88.655 74.6727 88.5537C74.9378 88.4523 75.1546 88.3041 75.3246 88.1107C75.4962 87.9174 75.6209 87.6788 75.7036 87.3965C75.7847 87.1142 75.8252 86.7883 75.8252 86.4233C75.8252 85.7246 75.6443 85.2038 75.2825 84.8607C74.9191 84.5191 74.4029 84.3491 73.7323 84.3491ZM75.164 87.1891C75.1094 87.3778 75.0392 87.5368 74.9534 87.6616C74.8677 87.7879 74.771 87.8877 74.6634 87.961C74.5558 88.0343 74.4466 88.0905 74.3374 88.1295C74.2267 88.1685 74.1238 88.1934 74.0255 88.2028C73.9273 88.2121 73.8462 88.2183 73.7822 88.2183H72.8169V84.8373H73.7931C74.0614 84.8373 74.2875 84.8763 74.47 84.9527C74.6525 85.0307 74.8022 85.1398 74.9191 85.2817C75.0345 85.4252 75.1172 85.5983 75.1687 85.8026C75.2201 86.0085 75.2451 86.2409 75.2451 86.5013C75.2466 86.7711 75.217 87.0003 75.164 87.1891Z" fill="#9D9D9D"/>
<path d="M78.9397 88.2353C78.9256 88.1792 78.9194 88.0887 78.9194 87.9671V86.3436C78.9194 86.1611 78.8851 86.0129 78.8165 85.8991C78.7478 85.7852 78.6558 85.6964 78.5404 85.6324C78.4266 85.57 78.2987 85.5279 78.1583 85.5077C78.018 85.4874 77.8776 85.478 77.7341 85.478C77.5595 85.478 77.3926 85.4967 77.2335 85.5326C77.0745 85.57 76.9341 85.6293 76.8124 85.712C76.6908 85.7962 76.5926 85.9038 76.5193 86.0395C76.446 86.1736 76.4054 86.3389 76.3976 86.5338H76.9154C76.9279 86.3015 77.0074 86.144 77.1524 86.0613C77.299 85.9771 77.4815 85.9365 77.703 85.9365C77.784 85.9365 77.8667 85.9428 77.9494 85.9552C78.0336 85.9677 78.1084 85.9927 78.1755 86.0285C78.2426 86.066 78.2971 86.1174 78.3408 86.1876C78.3829 86.2562 78.4047 86.3483 78.4047 86.4621C78.4047 86.5603 78.3767 86.6336 78.319 86.6851C78.2628 86.7366 78.1849 86.7756 78.0866 86.8005C77.9884 86.827 77.8761 86.8473 77.7482 86.8613C77.6203 86.8754 77.4846 86.8972 77.3427 86.9253C77.2086 86.9502 77.0776 86.9814 76.9481 87.0189C76.8202 87.0578 76.7064 87.1109 76.6066 87.181C76.5068 87.2497 76.4257 87.3417 76.3649 87.4555C76.304 87.5694 76.2744 87.716 76.2744 87.8953C76.2744 88.0544 76.3009 88.1885 76.3555 88.3008C76.4101 88.4131 76.4849 88.5051 76.5785 88.5753C76.6721 88.6455 76.7828 88.6985 76.9123 88.7312C77.0401 88.764 77.1758 88.7811 77.3177 88.7811C77.5376 88.7811 77.7419 88.7422 77.9306 88.6657C78.1194 88.5878 78.2847 88.4646 78.4281 88.293C78.4281 88.463 78.4671 88.5878 78.5467 88.6657C78.6262 88.7422 78.7323 88.7811 78.8664 88.7811C79.0223 88.7811 79.1455 88.7531 79.2391 88.6954V88.293C79.183 88.3133 79.1284 88.3226 79.08 88.3226C79.0021 88.3211 78.9537 88.2914 78.9397 88.2353ZM78.4001 87.6068C78.4001 87.6801 78.3814 87.7581 78.3455 87.8407C78.3081 87.9249 78.2519 88.0014 78.1739 88.0731C78.0975 88.1448 77.9977 88.2025 77.8745 88.2493C77.7529 88.2961 77.6063 88.3195 77.4363 88.3195C77.3552 88.3195 77.2772 88.3117 77.2039 88.2946C77.1306 88.279 77.0667 88.2525 77.0105 88.215C76.9559 88.1776 76.9107 88.1308 76.8764 88.0715C76.8421 88.0138 76.8234 87.9405 76.8234 87.8548C76.8234 87.7565 76.8405 87.6754 76.8764 87.6099C76.9107 87.5444 76.9559 87.4914 77.0136 87.4477C77.0698 87.4056 77.1384 87.3713 77.2148 87.3479C77.2912 87.323 77.3723 87.3027 77.4581 87.2871C77.5439 87.2699 77.6328 87.2575 77.7232 87.2465C77.8152 87.2372 77.901 87.2247 77.9821 87.2091C78.0632 87.1951 78.1412 87.1779 78.2145 87.1576C78.2878 87.1374 78.3486 87.1093 78.397 87.0719V87.6068H78.4001Z" fill="#9D9D9D"/>
<path d="M80.4447 84.6047H79.9254V85.5498H79.3889V86.0083H79.9254V88.0155C79.9254 88.1621 79.941 88.2806 79.9691 88.3695C79.9971 88.4584 80.0408 88.5286 80.1001 88.5769C80.1578 88.6268 80.2357 88.6595 80.3324 88.6783C80.4276 88.697 80.543 88.7063 80.6771 88.7063H81.0732V88.2478H80.8362C80.7551 88.2478 80.688 88.2447 80.6381 88.2385C80.5866 88.2322 80.5477 88.2198 80.5196 88.1995C80.4915 88.1792 80.4712 88.1511 80.4619 88.1137C80.4525 88.0763 80.4463 88.0279 80.4463 87.9671V86.0083H81.0748V85.5498H80.4463V84.6047H80.4447Z" fill="#9D9D9D"/>
<path d="M84.139 88.2353C84.125 88.1792 84.1188 88.0887 84.1188 87.9671V86.3436C84.1188 86.1611 84.0845 86.0129 84.0143 85.8991C83.9457 85.7852 83.8536 85.6964 83.7398 85.6324C83.626 85.57 83.4981 85.5279 83.3577 85.5077C83.2174 85.4874 83.077 85.478 82.9335 85.478C82.7588 85.478 82.592 85.4967 82.4329 85.5326C82.2738 85.57 82.1335 85.6293 82.0118 85.712C81.8902 85.7962 81.7919 85.9038 81.7186 86.0395C81.6453 86.1736 81.6048 86.3389 81.597 86.5338H82.1148C82.1272 86.3015 82.2068 86.144 82.3534 86.0613C82.5 85.9771 82.6824 85.9365 82.9039 85.9365C82.985 85.9365 83.0676 85.9428 83.1503 85.9552C83.2345 85.9677 83.3094 85.9927 83.3764 86.0285C83.4435 86.066 83.4981 86.1174 83.5417 86.1876C83.5838 86.2562 83.6057 86.3483 83.6057 86.4621C83.6057 86.5603 83.5776 86.6336 83.5199 86.6851C83.4638 86.7366 83.3858 86.7756 83.2875 86.8005C83.1893 86.827 83.077 86.8473 82.9491 86.8613C82.8212 86.8754 82.6855 86.8972 82.5436 86.9253C82.4095 86.9502 82.2785 86.9814 82.1491 87.0189C82.0212 87.0578 81.9073 87.1109 81.8075 87.181C81.7077 87.2497 81.6266 87.3417 81.5658 87.4555C81.505 87.5694 81.4753 87.716 81.4753 87.8953C81.4753 88.0544 81.5019 88.1885 81.5564 88.3008C81.611 88.4131 81.6859 88.5051 81.7795 88.5753C81.873 88.6455 81.9838 88.6985 82.1132 88.7312C82.2411 88.764 82.3768 88.7811 82.5187 88.7811C82.7386 88.7811 82.9429 88.7422 83.1316 88.6657C83.3203 88.5878 83.4856 88.4646 83.6291 88.293C83.6291 88.463 83.6681 88.5878 83.7476 88.6657C83.8271 88.7422 83.9332 88.7811 84.0673 88.7811C84.2233 88.7811 84.3465 88.7531 84.44 88.6954V88.293C84.3839 88.3133 84.3293 88.3226 84.281 88.3226C84.2014 88.3211 84.1531 88.2914 84.139 88.2353ZM83.5994 87.6068C83.5994 87.6801 83.5807 87.7581 83.5449 87.8407C83.5074 87.9249 83.4513 88.0014 83.3733 88.0731C83.2969 88.1448 83.1971 88.2025 83.0739 88.2493C82.9522 88.2961 82.8056 88.3195 82.6356 88.3195C82.5545 88.3195 82.4766 88.3117 82.4033 88.2946C82.33 88.279 82.266 88.2525 82.2099 88.215C82.1553 88.1776 82.1101 88.1308 82.0758 88.0715C82.0415 88.0138 82.0227 87.9405 82.0227 87.8548C82.0227 87.7565 82.0399 87.6754 82.0758 87.6099C82.1101 87.5444 82.1553 87.4914 82.213 87.4477C82.2691 87.4056 82.3378 87.3713 82.4142 87.3479C82.4906 87.323 82.5717 87.3027 82.6575 87.2871C82.7433 87.2699 82.8321 87.2575 82.9226 87.2465C83.0146 87.2372 83.1004 87.2247 83.1815 87.2091C83.2626 87.1951 83.3406 87.1779 83.4139 87.1576C83.4872 87.1374 83.548 87.1093 83.5963 87.0719V87.6068H83.5994Z" fill="#9D9D9D"/>
<path d="M89.4322 87.4635C89.465 87.3886 89.493 87.3122 89.5149 87.2342C89.5367 87.1562 89.5554 87.072 89.5695 86.98C89.5835 86.8896 89.596 86.7788 89.6084 86.6478H89.1141C89.1016 86.8802 89.0548 87.1048 88.9737 87.3247L88.1861 86.3671C88.2922 86.3047 88.3935 86.2377 88.4918 86.1613C88.5901 86.0864 88.6774 86.0022 88.7554 85.9086C88.8318 85.815 88.8926 85.7121 88.9378 85.6014C88.9815 85.4891 89.0049 85.369 89.0049 85.238C89.0049 85.0914 88.9753 84.962 88.916 84.8497C88.8583 84.7374 88.7788 84.6438 88.6821 84.569C88.5838 84.4941 88.4715 84.438 88.3436 84.4005C88.2158 84.3631 88.0848 84.3459 87.9491 84.3459C87.79 84.3459 87.6496 84.3709 87.528 84.4192C87.4064 84.4676 87.3034 84.5347 87.2208 84.6173C87.1366 84.7015 87.0742 84.7966 87.0321 84.9043C86.9884 85.0134 86.9681 85.1257 86.9681 85.2427C86.9681 85.3534 86.9822 85.4517 87.0071 85.5421C87.0336 85.6326 87.0711 85.7152 87.1178 85.7932C87.1646 85.8712 87.2161 85.9476 87.2738 86.0256C87.3315 86.1035 87.3892 86.1846 87.4516 86.2689C87.3128 86.3422 87.1818 86.4201 87.057 86.5043C86.9323 86.5886 86.8247 86.6806 86.7326 86.7851C86.6406 86.8896 86.5689 87.0065 86.5127 87.136C86.4582 87.2654 86.4316 87.4167 86.4316 87.5867C86.4316 87.6756 86.4472 87.7879 86.4769 87.922C86.5081 88.0561 86.5704 88.1871 86.6703 88.3119C86.7669 88.4382 86.9057 88.5458 87.0851 88.6378C87.2644 88.7298 87.4999 88.775 87.7931 88.775C87.9101 88.775 88.0302 88.761 88.1503 88.7345C88.2703 88.708 88.3842 88.669 88.4918 88.6191C88.5994 88.5676 88.6992 88.5052 88.7912 88.4273C88.8832 88.3509 88.9612 88.2604 89.0252 88.159L89.4899 88.7018H90.1667L89.3184 87.7192C89.362 87.6257 89.3995 87.5383 89.4322 87.4635ZM87.6387 84.9199C87.7448 84.8434 87.8602 84.8076 87.9818 84.8076C88.1378 84.8076 88.261 84.8528 88.3514 84.9448C88.4419 85.0353 88.4871 85.1444 88.4871 85.2708C88.4871 85.3643 88.4684 85.4501 88.431 85.5234C88.3951 85.5998 88.3468 85.6669 88.2906 85.7293C88.2345 85.7901 88.1705 85.8447 88.1004 85.893C88.0317 85.9414 87.9647 85.9866 87.9039 86.0271C87.8539 85.9663 87.8056 85.9039 87.7557 85.8447C87.7058 85.7823 87.6621 85.7215 87.62 85.6591C87.5795 85.5951 87.5452 85.5312 87.5186 85.4657C87.4921 85.4002 87.4781 85.3363 87.4781 85.2708C87.4797 85.1117 87.5327 84.9947 87.6387 84.9199ZM88.3436 88.1809C88.1861 88.2744 88.0083 88.3212 87.8103 88.3212C87.7042 88.3212 87.6013 88.3025 87.5031 88.2666C87.4032 88.2292 87.3143 88.1793 87.2379 88.1169C87.16 88.0545 87.0976 87.9766 87.0523 87.8861C87.0056 87.7941 86.9822 87.6927 86.9822 87.5836C86.9822 87.4526 87.0024 87.3403 87.043 87.2451C87.0835 87.1484 87.1397 87.0627 87.2083 86.9863C87.2769 86.9098 87.358 86.8397 87.45 86.7788C87.542 86.718 87.6372 86.6587 87.7401 86.6026L88.7413 87.805C88.6322 87.961 88.4996 88.0873 88.3436 88.1809Z" fill="#9D9D9D"/>
<path d="M93.4293 84.3491L91.7263 88.7065H92.3252L92.8133 87.3949H94.6551L95.1324 88.7065H95.7718L94.0688 84.3491H93.4293ZM92.9958 86.9052L93.735 84.8731H93.7459L94.4727 86.9052H92.9958Z" fill="#9D9D9D"/>
<path d="M96.8027 84.3474H96.2241V88.7048H96.8027V84.3474Z" fill="#9D9D9D"/>
<path d="M100.661 84.3491L98.958 88.7065H99.5553L100.043 87.3949H101.887L102.362 88.7065H103.003L101.3 84.3491H100.661ZM100.227 86.9052L100.967 84.8731H100.978L101.704 86.9052H100.227Z" fill="#9D9D9D"/>
<path d="M105.438 87.3325C105.438 87.4744 105.419 87.6069 105.38 87.727C105.341 87.8471 105.284 87.9516 105.207 88.0405C105.129 88.1309 105.034 88.1996 104.917 88.2479C104.802 88.2963 104.663 88.3212 104.505 88.3212C104.306 88.3212 104.15 88.2635 104.036 88.1497C103.922 88.0358 103.864 87.8814 103.864 87.6849V85.5499H103.347V87.6241C103.347 87.7956 103.364 87.95 103.398 88.0904C103.432 88.2308 103.492 88.3524 103.579 88.4538C103.665 88.5551 103.776 88.6347 103.914 88.6908C104.052 88.7485 104.226 88.7766 104.432 88.7766C104.66 88.7766 104.859 88.7298 105.034 88.6362C105.207 88.5427 105.348 88.3976 105.458 88.2027H105.471V88.7033H105.959V85.5483H105.44V87.3325H105.438Z" fill="#9D9D9D"/>
<path d="M107.457 84.6047H106.938V85.5498H106.402V86.0083H106.938V88.0155C106.938 88.1621 106.954 88.2806 106.982 88.3695C107.01 88.4584 107.053 88.5286 107.113 88.5769C107.17 88.6268 107.248 88.6595 107.345 88.6783C107.44 88.697 107.556 88.7063 107.69 88.7063H108.086V88.2478H107.849C107.768 88.2478 107.701 88.2447 107.651 88.2385C107.599 88.2322 107.56 88.2198 107.531 88.1995C107.503 88.1792 107.484 88.1511 107.473 88.1137C107.464 88.0763 107.457 88.0279 107.457 87.9671V86.0083H108.086V85.5498H107.457V84.6047Z" fill="#9D9D9D"/>
<path d="M111.04 85.8011C110.954 85.6997 110.843 85.6202 110.704 85.5625C110.566 85.5047 110.393 85.4767 110.187 85.4767C110.093 85.4767 109.996 85.4876 109.897 85.5079C109.797 85.5281 109.702 85.5593 109.613 85.6014C109.524 85.6435 109.441 85.6997 109.366 85.7699C109.292 85.8385 109.232 85.9211 109.193 86.0147H109.181V84.3491H108.66V88.7049H109.179V86.9239C109.179 86.782 109.198 86.651 109.237 86.5309C109.276 86.4108 109.334 86.3064 109.412 86.2159C109.488 86.127 109.585 86.0568 109.702 86.0085C109.817 85.9586 109.956 85.9352 110.113 85.9352C110.311 85.9352 110.469 85.9913 110.583 86.1067C110.697 86.2206 110.754 86.375 110.754 86.5699V88.7049H111.272V86.6307C111.272 86.4592 111.255 86.3032 111.221 86.1629C111.185 86.0241 111.126 85.9024 111.04 85.8011Z" fill="#9D9D9D"/>
<path d="M114.555 85.9568C114.425 85.8086 114.265 85.6917 114.073 85.6059C113.881 85.5201 113.661 85.478 113.413 85.478C113.161 85.478 112.941 85.5201 112.752 85.6059C112.563 85.6917 112.403 85.8071 112.272 85.9568C112.142 86.105 112.044 86.2796 111.98 86.4824C111.915 86.6836 111.882 86.9003 111.882 87.1327C111.882 87.3635 111.915 87.5803 111.98 87.7799C112.044 87.978 112.142 88.1526 112.272 88.3008C112.403 88.449 112.562 88.5659 112.752 88.6517C112.941 88.7375 113.162 88.7796 113.413 88.7796C113.661 88.7796 113.881 88.7359 114.073 88.6517C114.265 88.5675 114.424 88.4505 114.555 88.3008C114.686 88.1511 114.783 87.978 114.848 87.7799C114.914 87.5803 114.946 87.3651 114.946 87.1327C114.946 86.9003 114.914 86.6836 114.848 86.4824C114.783 86.2796 114.684 86.105 114.555 85.9568ZM114.319 87.6396C114.268 87.7877 114.198 87.9125 114.109 88.0123C114.018 88.1121 113.914 88.1885 113.794 88.2415C113.674 88.2946 113.547 88.3211 113.412 88.3211C113.278 88.3211 113.151 88.2946 113.03 88.2415C112.91 88.1885 112.805 88.1121 112.716 88.0123C112.626 87.9125 112.556 87.7893 112.506 87.6396C112.454 87.4914 112.429 87.3214 112.429 87.1311C112.429 86.9393 112.454 86.7693 112.506 86.6212C112.557 86.473 112.627 86.3467 112.716 86.2453C112.805 86.1439 112.91 86.066 113.03 86.0129C113.15 85.9599 113.276 85.9334 113.412 85.9334C113.546 85.9334 113.672 85.9599 113.794 86.0129C113.914 86.066 114.018 86.1439 114.109 86.2453C114.198 86.3467 114.268 86.473 114.319 86.6212C114.371 86.7693 114.396 86.9393 114.396 87.1311C114.396 87.323 114.371 87.4914 114.319 87.6396Z" fill="#9D9D9D"/>
<path d="M116.038 86.2159H116.025V85.5515H115.537V88.7065H116.057V87.3045C116.057 87.1048 116.077 86.9255 116.118 86.7664C116.158 86.6073 116.224 86.4732 116.312 86.3641C116.403 86.2533 116.52 86.1707 116.666 86.113C116.813 86.0568 116.991 86.0272 117.198 86.0272V85.4782C116.918 85.4704 116.685 85.5281 116.503 85.6498C116.317 85.7699 116.163 85.9601 116.038 86.2159Z" fill="#9D9D9D"/>
<path d="M118.137 85.5498H117.618V88.7048H118.137V85.5498Z" fill="#9D9D9D"/>
<path d="M119.662 84.6047H119.143V85.5498H118.607V86.0083H119.143V88.0155C119.143 88.1621 119.159 88.2806 119.185 88.3695C119.213 88.4584 119.259 88.5286 119.316 88.5769C119.376 88.6268 119.454 88.6595 119.549 88.6783C119.644 88.697 119.759 88.7063 119.893 88.7063H120.289V88.2478H120.052C119.971 88.2478 119.904 88.2447 119.854 88.2385C119.803 88.2322 119.764 88.2198 119.734 88.1995C119.706 88.1792 119.687 88.1511 119.677 88.1137C119.667 88.0763 119.661 88.0279 119.661 87.9671V86.0083H120.289V85.5498H119.661V84.6047H119.662Z" fill="#9D9D9D"/>
<path d="M122.927 85.5498L122.042 88.1308H122.03L121.108 85.5498H120.522L121.772 88.686L121.559 89.2241C121.51 89.3177 121.453 89.3894 121.389 89.4377C121.323 89.4861 121.238 89.511 121.133 89.511C121.08 89.511 121.029 89.5032 120.977 89.4861C120.926 89.4705 120.876 89.4533 120.827 89.4377V89.915C120.884 89.9337 120.943 89.9493 121.004 89.9571C121.064 89.9649 121.125 89.9696 121.186 89.9696C121.3 89.9696 121.401 89.954 121.492 89.9243C121.581 89.8947 121.66 89.8448 121.73 89.7777C121.799 89.7107 121.864 89.6249 121.922 89.5188C121.981 89.4128 122.042 89.2834 122.103 89.129L123.476 85.5529H122.927V85.5498Z" fill="#9D9D9D"/>
<path d="M69.6495 84.3491H69.1301V84.9823L69.6495 84.6829V84.3491Z" fill="#9D9D9D"/>
<path d="M118.137 84.3491H117.618V84.9823L118.137 84.6829V84.3491Z" fill="#9D9D9D"/>
<path d="M54.734 73.7596C54.8307 73.8298 54.9554 73.8828 55.1129 73.9156C55.2689 73.9483 55.4654 73.9639 55.7009 73.9639H59.3986V71.6152H58.8979V73.4571H55.9504C55.7555 73.4571 55.5948 73.4508 55.4685 73.4383C55.3422 73.4274 55.2439 73.4009 55.1691 73.3619C55.0958 73.3229 55.0443 73.2652 55.0131 73.1904C54.9835 73.1155 54.9679 73.0141 54.9679 72.8878V72.1252H54.4673V73.0703C54.4673 73.234 54.4876 73.3713 54.5281 73.482C54.5702 73.5974 54.6388 73.6879 54.734 73.7596Z" fill="#9D9D9D"/>
<path d="M60.4934 73.7878C60.5683 73.8533 60.6603 73.8986 60.7679 73.9251C60.8755 73.9516 60.9956 73.9641 61.1251 73.9641H63.6266V71.6138H63.1259V73.4572H61.1859C61.0034 73.4572 60.8849 73.4229 60.8319 73.3512C60.7788 73.281 60.7523 73.1593 60.7523 72.9878V69.6067H60.2517V73.1219C60.2517 73.2841 60.2735 73.4198 60.3157 73.5274C60.3593 73.635 60.4186 73.7223 60.4934 73.7878Z" fill="#9D9D9D"/>
<path d="M64.7167 73.7879C64.7916 73.8534 64.8836 73.8986 64.9912 73.9251C65.0988 73.9517 65.2189 73.9641 65.3483 73.9641H66.911C67.1387 73.9641 67.3305 73.9392 67.488 73.8908C67.644 73.8409 67.7594 73.7349 67.8327 73.5665C67.8654 73.6803 67.9309 73.7754 68.0276 73.8503C68.1259 73.9251 68.2506 73.9626 68.4097 73.9626H68.9119C69.1396 73.9626 69.3329 73.9376 69.4889 73.8893C69.6464 73.8394 69.7603 73.7333 69.8335 73.5649C69.8663 73.6787 69.9318 73.7739 70.0301 73.8487C70.1267 73.9236 70.2546 73.961 70.4137 73.961H70.8473C71.0999 73.961 71.3058 73.9361 71.4664 73.8877C71.627 73.8378 71.744 73.7318 71.8173 73.5633C71.85 73.6772 71.914 73.7723 72.0091 73.8472C72.1058 73.922 72.2321 73.9595 72.3912 73.9595H73.8447V69.6021H73.3441V73.4526H72.3912C72.2087 73.4526 72.0746 73.3918 71.992 73.2717C71.9077 73.1516 71.8672 72.9879 71.8672 72.7804V69.6005H71.3666V73.005C71.3666 73.1064 71.3557 73.1875 71.3338 73.2467C71.312 73.306 71.2808 73.3497 71.2418 73.3809C71.2028 73.4121 71.1545 73.4308 71.0983 73.4386C71.0422 73.4464 70.9767 73.451 70.9034 73.451H70.4153C70.3092 73.451 70.2219 73.4339 70.1533 73.4011C70.0846 73.3684 70.0285 73.3247 69.988 73.267C69.9474 73.2093 69.9193 73.1391 69.9069 73.0565C69.8913 72.9723 69.885 72.8803 69.885 72.7789V71.6061H69.3844V73.0035C69.3844 73.1048 69.3735 73.1859 69.3517 73.2452C69.3298 73.3044 69.2955 73.3481 69.2487 73.3793C69.2019 73.4105 69.1442 73.4292 69.0741 73.437C69.0054 73.4448 68.9228 73.4495 68.823 73.4495H68.4128C68.3083 73.4495 68.221 73.4323 68.1524 73.3996C68.0837 73.3668 68.0276 73.3232 67.9886 73.2655C67.9481 73.2078 67.92 73.1376 67.906 73.0549C67.8919 72.9707 67.8857 72.8787 67.8857 72.7773V71.6045H67.3851V73.0019C67.3851 73.1033 67.3742 73.1844 67.3523 73.2436C67.3305 73.3029 67.2946 73.3466 67.2478 73.3777C67.201 73.4089 67.1433 73.4276 67.0747 73.4354C67.0061 73.4432 66.9219 73.4479 66.8252 73.4479H65.4154C65.2329 73.4479 65.1144 73.4136 65.0614 73.3419C65.0083 73.2717 64.9818 73.1501 64.9818 72.9785V69.5974H64.4812V73.1126C64.4812 73.2748 64.503 73.4105 64.5451 73.5181C64.5826 73.6351 64.6418 73.7224 64.7167 73.7879Z" fill="#9D9D9D"/>
<path d="M76.4025 73.2606C76.5179 73.3355 76.6411 73.387 76.769 73.415C76.8969 73.4431 77.0107 73.4571 77.1074 73.4571C77.2134 73.4571 77.3226 73.4478 77.4333 73.4275C77.5456 73.4072 77.6454 73.3807 77.7359 73.348C77.7515 73.4712 77.7874 73.571 77.8388 73.6505C77.8918 73.7285 77.9558 73.7909 78.0322 73.8377C78.1071 73.8844 78.1928 73.9172 78.288 73.9375C78.3831 73.9562 78.4845 73.9655 78.5905 73.9655H81.1529V71.6169H80.6522V73.4587L78.6513 73.4524C78.4689 73.4524 78.3504 73.4166 78.2973 73.3464C78.2459 73.2762 78.2194 73.1546 78.2194 72.9861V71.2441H77.2493C77.1027 71.2441 76.9561 71.2644 76.8064 71.305C76.6582 71.3455 76.5226 71.411 76.4009 71.5046C76.2777 71.5982 76.1795 71.7182 76.1015 71.8664C76.0235 72.0146 75.9861 72.197 75.9861 72.4154C75.9861 72.6337 76.0266 72.8115 76.1077 72.9472C76.1873 73.0797 76.2855 73.1858 76.4025 73.2606ZM76.6801 71.8976C76.8189 71.7978 76.9858 71.7494 77.1807 71.7494H77.7172V72.8302C77.6361 72.8614 77.5441 72.8879 77.4396 72.9082C77.3366 72.9284 77.24 72.9394 77.1495 72.9394C76.914 72.9394 76.7409 72.8863 76.6333 72.7818C76.5257 72.6758 76.4711 72.5386 76.4711 72.3686C76.4727 72.1534 76.5413 71.9974 76.6801 71.8976Z" fill="#9D9D9D"/>
<path d="M83.8072 73.7754C83.9413 73.6491 84.0083 73.4885 84.0083 73.2935C84.0083 73.2046 83.9896 73.1111 83.9506 73.0159C83.9117 72.9208 83.854 72.8054 83.776 72.6713C83.6996 72.5371 83.5997 72.375 83.4812 72.1831C83.3611 71.9913 83.2192 71.7574 83.057 71.4751L82.5876 71.7683C82.795 72.0724 82.9588 72.3157 83.0789 72.495C83.1989 72.6744 83.291 72.8132 83.3549 72.9099C83.4173 73.0081 83.4578 73.0799 83.4734 73.1235C83.489 73.1688 83.4984 73.2109 83.4984 73.2514C83.4984 73.3044 83.4797 73.3528 83.4438 73.3949C83.4064 73.437 83.319 73.4588 83.1802 73.4588H81.7642V73.9657H83.2223C83.4765 73.9641 83.673 73.9017 83.8072 73.7754Z" fill="#9D9D9D"/>
<path d="M96.6888 73.4571H95.7281C95.6221 73.4571 95.5363 73.4415 95.4677 73.4072C95.3991 73.3744 95.3429 73.3308 95.3024 73.2731C95.2618 73.2154 95.2353 73.1452 95.2213 73.0625C95.2073 72.9783 95.1995 72.8863 95.1995 72.7849V71.6137H94.6988V73.0111C94.6988 73.1124 94.6879 73.1935 94.6645 73.2528C94.6427 73.3121 94.6115 73.3557 94.571 73.3869C94.5304 73.4181 94.4821 73.4368 94.4244 73.4446C94.3667 73.4524 94.3043 73.4571 94.2357 73.4571C94.114 73.4571 94.0158 73.4415 93.9393 73.4072C93.8645 73.3744 93.8052 73.3308 93.7631 73.2731C93.721 73.2154 93.6929 73.1452 93.6773 73.0625C93.6633 72.9783 93.6555 72.8863 93.6555 72.7849V71.9178H93.1549V73.0095C93.1549 73.1109 93.144 73.192 93.1206 73.2512C93.0988 73.3105 93.0644 73.3542 93.0208 73.3854C92.9755 73.4165 92.921 73.4353 92.8555 73.4431C92.79 73.4509 92.7135 73.4555 92.6247 73.4555C92.4827 73.4555 92.3689 73.4399 92.2862 73.4056C92.202 73.3729 92.1381 73.3292 92.0929 73.2715C92.0492 73.2138 92.0195 73.1436 92.0071 73.061C91.9946 72.9768 91.9884 72.8847 91.9884 72.7834V71.9163H91.4878V73.0079C91.4878 73.1093 91.4768 73.1904 91.4519 73.2497C91.4269 73.3089 91.3879 73.3526 91.3318 73.3838C91.2772 73.415 91.2024 73.4337 91.1088 73.4415C91.0152 73.4493 90.9014 73.454 90.7672 73.454H89.7052C89.5789 73.454 89.4775 73.4462 89.4011 73.429C89.6163 73.2793 89.7878 73.1046 89.9157 72.9097C90.0436 72.7148 90.1091 72.5042 90.1091 72.2812C90.1091 72.1876 90.0873 72.0956 90.0452 72.0036C90.0031 71.9131 89.9376 71.8305 89.8502 71.7603C89.7629 71.6901 89.6522 71.6324 89.5212 71.5888C89.3886 71.5467 89.2326 71.5248 89.0549 71.5248C88.8381 71.5248 88.6385 71.5638 88.4529 71.6402C88.2688 71.7182 88.1113 71.8211 87.9803 71.9521C87.9554 71.9771 87.932 72.0083 87.9102 72.0473C87.8883 72.0863 87.8649 72.1284 87.8431 72.1751C87.8213 72.2219 87.7994 72.2703 87.7807 72.3186C87.762 72.367 87.748 72.4138 87.7355 72.459L88.4981 73.3245C88.3609 73.3698 88.2158 73.4025 88.0646 73.4228C87.9148 73.4431 87.762 73.454 87.6076 73.454H86.8996V73.167C86.8996 72.9269 86.8793 72.7101 86.8372 72.5151C86.7966 72.3202 86.7311 72.1533 86.6391 72.0145C86.5471 71.8757 86.4286 71.7697 86.282 71.6948C86.1354 71.6199 85.956 71.5825 85.744 71.5825C85.5521 71.5825 85.3837 71.6199 85.2355 71.6948C85.0874 71.7712 84.9611 71.8695 84.8566 71.9911C84.7536 72.1128 84.6741 72.2547 84.618 72.4122C84.5634 72.5713 84.5369 72.7335 84.5369 72.9003C84.5369 73.0984 84.5665 73.2653 84.6258 73.401C84.6835 73.5351 84.7661 73.6442 84.869 73.7269C84.9735 73.8111 85.0952 73.8704 85.2355 73.9078C85.3759 73.9452 85.5287 73.9624 85.6956 73.9624H86.3849C86.3818 74.1246 86.3459 74.2571 86.2789 74.3585C86.2118 74.4599 86.1198 74.5394 86.0044 74.594C85.889 74.6486 85.7518 74.686 85.5927 74.7032C85.4336 74.7219 85.2589 74.7312 85.0671 74.7312H84.8784V75.2397H85.1342C85.3899 75.2397 85.6239 75.2194 85.8328 75.1788C86.0418 75.1383 86.2212 75.0697 86.3725 74.9714C86.5222 74.8732 86.6407 74.7437 86.728 74.58C86.8154 74.4178 86.8668 74.2119 86.884 73.9639H87.6279C87.8431 73.9639 88.0552 73.9421 88.2626 73.9C88.47 73.8579 88.6697 73.7971 88.8615 73.7191C88.9784 73.822 89.0923 73.8875 89.1999 73.9172C89.3075 73.9468 89.4214 73.9624 89.5383 73.9624H90.7532C90.9325 73.9624 91.0869 73.9577 91.2133 73.9468C91.3412 73.9374 91.4488 73.9172 91.5377 73.886C91.625 73.8548 91.6967 73.8142 91.7513 73.7628C91.8059 73.7113 91.8511 73.6442 91.8886 73.5585C91.9135 73.6068 91.9431 73.6552 91.979 73.7051C92.0164 73.7534 92.0648 73.7971 92.1256 73.8361C92.1864 73.8751 92.2644 73.9047 92.3595 73.9281C92.4562 73.9499 92.5748 73.9608 92.7182 73.9608C92.9288 73.9608 93.1112 73.9359 93.2641 73.8875C93.4169 73.8376 93.5292 73.7316 93.6025 73.5631C93.6228 73.6084 93.6493 73.6536 93.6836 73.7004C93.7179 73.7472 93.7662 73.7893 93.8271 73.8283C93.8894 73.8673 93.9643 73.8984 94.0563 73.9218C94.1468 73.9468 94.2606 73.9593 94.3947 73.9593C94.4446 73.9593 94.5023 73.9546 94.571 73.9437C94.6396 73.9343 94.7113 73.914 94.7846 73.886C94.8579 73.8579 94.9281 73.8189 94.992 73.7674C95.0575 73.716 95.1075 73.6474 95.1449 73.5616C95.1776 73.6754 95.2431 73.7706 95.3398 73.8454C95.4381 73.9203 95.5644 73.9577 95.725 73.9577H97.1832V69.6003H96.6826V73.4571H96.6888ZM86.388 73.4571H85.7346C85.5022 73.4571 85.326 73.4072 85.2059 73.3105C85.0858 73.2122 85.0266 73.0594 85.0266 72.852C85.0266 72.7584 85.0406 72.6648 85.0687 72.5713C85.0967 72.4777 85.1389 72.3935 85.1934 72.3171C85.248 72.2422 85.3182 72.1814 85.404 72.1346C85.4897 72.0878 85.5911 72.0644 85.7096 72.0644C85.9576 72.0644 86.1323 72.1533 86.2336 72.3327C86.335 72.512 86.3865 72.7522 86.3865 73.0532V73.4571H86.388ZM88.9566 73.1467L88.2127 72.3592C88.2985 72.2531 88.4123 72.1674 88.5574 72.1034C88.7024 72.0379 88.8552 72.0052 89.0174 72.0052C89.2202 72.0052 89.3699 72.0426 89.465 72.1174C89.5617 72.1923 89.6085 72.2765 89.6085 72.3701C89.6085 72.5214 89.5477 72.6633 89.4276 72.7974C89.3091 72.9331 89.1515 73.0485 88.9566 73.1467Z" fill="#9D9D9D"/>
<path d="M98.5431 69.6082H98.0425V73.9655H98.5431V69.6082Z" fill="#9D9D9D"/>
<path d="M106.268 70.583H105.846C105.703 70.583 105.598 70.544 105.528 70.4676C105.46 70.3912 105.425 70.2945 105.425 70.1806C105.425 70.0902 105.455 70.0091 105.514 69.9327C105.572 69.8578 105.667 69.8204 105.798 69.8204C105.917 69.8204 106.021 69.8391 106.115 69.875V69.5459C106.09 69.5381 106.048 69.5272 105.984 69.5163C105.92 69.5038 105.846 69.4976 105.761 69.4976C105.675 69.4976 105.594 69.5116 105.517 69.5397C105.439 69.5677 105.371 69.6098 105.31 69.6644C105.249 69.719 105.201 69.7876 105.163 69.8718C105.126 69.9561 105.109 70.0543 105.109 70.1682C105.109 70.3304 105.156 70.4692 105.249 70.583H104.937V70.9074H106.268V70.583Z" fill="#9D9D9D"/>
<path d="M113.041 69.6067H112.54V73.4572H110.709V73.4322C110.823 73.3387 110.924 73.217 111.012 73.0689C111.099 72.9207 111.143 72.7336 111.143 72.5106C111.143 72.4123 111.127 72.3063 111.094 72.194C111.062 72.0801 111.007 71.9741 110.932 71.8758C110.857 71.7791 110.758 71.6965 110.636 71.6325C110.514 71.567 110.365 71.5343 110.185 71.5343C109.831 71.5343 109.555 71.67 109.356 71.9429C109.156 72.2158 109.056 72.601 109.056 73.1016V73.4556H108.404C108.298 73.4556 108.211 73.44 108.142 73.4073C108.074 73.3745 108.017 73.3293 107.977 73.2732C107.936 73.217 107.908 73.1468 107.894 73.0626C107.88 72.9784 107.874 72.8864 107.874 72.785V71.6138H107.373V73.0112C107.373 73.1125 107.362 73.1936 107.341 73.2513C107.319 73.3106 107.283 73.3558 107.238 73.3855C107.191 73.4167 107.133 73.4354 107.063 73.4432C106.994 73.451 106.912 73.4541 106.812 73.4541H106.403C106.297 73.4541 106.21 73.4385 106.14 73.4057C106.071 73.373 106.015 73.3278 105.976 73.2716C105.935 73.2155 105.907 73.1453 105.893 73.0611C105.879 72.9769 105.873 72.8848 105.873 72.7835V71.6123H105.372V73.0096C105.372 73.111 105.362 73.1921 105.338 73.2498C105.316 73.309 105.282 73.3543 105.235 73.3839C105.188 73.4151 105.131 73.4338 105.062 73.4416C104.993 73.4494 104.909 73.4525 104.811 73.4525L103.353 73.4463C103.17 73.4463 103.052 73.412 103 73.3402C102.947 73.2701 102.921 73.1484 102.921 72.9784V71.2364H101.951C101.804 71.2364 101.656 71.2567 101.508 71.2972C101.358 71.3378 101.224 71.4033 101.101 71.4969C100.979 71.5889 100.879 71.709 100.801 71.8571C100.723 72.0053 100.686 72.1877 100.686 72.4061C100.686 72.6244 100.727 72.8022 100.808 72.9379C100.889 73.0736 100.989 73.178 101.104 73.2529C101.219 73.3278 101.341 73.3792 101.47 73.4089C101.598 73.4369 101.712 73.451 101.809 73.451C101.915 73.451 102.024 73.4416 102.136 73.4213C102.249 73.4011 102.349 73.3745 102.439 73.3418C102.455 73.4634 102.489 73.5648 102.542 73.6428C102.595 73.7208 102.659 73.7831 102.734 73.8299C102.81 73.8767 102.894 73.911 102.989 73.9297C103.086 73.9485 103.186 73.9578 103.292 73.9578H104.903C105.131 73.9578 105.323 73.9329 105.48 73.8845C105.636 73.8362 105.751 73.7286 105.825 73.5617C105.857 73.6755 105.923 73.7707 106.02 73.8455C106.118 73.9204 106.244 73.9578 106.403 73.9578H106.405H106.905C107.133 73.9578 107.325 73.9329 107.483 73.8845C107.64 73.8362 107.754 73.7286 107.827 73.5617C107.86 73.6755 107.925 73.7707 108.022 73.8455C108.12 73.9204 108.248 73.9578 108.407 73.9578H109.059V74.0249C109.059 74.2448 109.078 74.4428 109.114 74.6206C109.151 74.7969 109.212 74.9481 109.299 75.0713C109.387 75.1945 109.502 75.2912 109.644 75.3583C109.786 75.4253 109.964 75.4581 110.174 75.4581C110.333 75.4581 110.474 75.4331 110.592 75.3848C110.712 75.3365 110.812 75.2709 110.892 75.1899C110.971 75.1088 111.03 75.0136 111.071 74.9029C111.112 74.7922 111.133 74.6799 111.133 74.5614C111.133 74.4849 111.119 74.3929 111.093 74.2869C111.066 74.1808 111.002 74.0795 110.899 73.9828V73.9578H113.042V69.6067H113.041ZM102.419 72.8303C102.338 72.8615 102.244 72.888 102.141 72.9098C102.038 72.9301 101.941 72.9394 101.851 72.9394C101.616 72.9394 101.442 72.8864 101.335 72.7819C101.227 72.6759 101.173 72.5386 101.173 72.3686C101.173 72.1534 101.241 71.9975 101.38 71.8977C101.517 71.7978 101.684 71.7495 101.881 71.7495H102.419V72.8303ZM109.557 73.0548C109.557 72.7258 109.61 72.4731 109.719 72.2953C109.827 72.1191 109.979 72.0302 110.179 72.0302C110.308 72.0302 110.422 72.0754 110.521 72.1675C110.619 72.2579 110.667 72.4014 110.667 72.5979C110.667 72.679 110.652 72.7694 110.625 72.8693C110.597 72.9691 110.549 73.0626 110.485 73.15C110.421 73.2373 110.333 73.3106 110.226 73.3699C110.117 73.4291 109.986 73.4588 109.831 73.4588H109.557V73.0548ZM110.549 74.8608C110.464 74.9466 110.338 74.9887 110.166 74.9887C110.037 74.9887 109.933 74.9637 109.853 74.9185C109.773 74.8717 109.711 74.8078 109.666 74.7251C109.622 74.644 109.591 74.5489 109.577 74.4382C109.563 74.3274 109.557 74.2073 109.557 74.0779V73.9625H110.007C110.157 73.9625 110.277 73.9843 110.365 74.0264C110.452 74.0685 110.519 74.1184 110.566 74.1761C110.613 74.2339 110.642 74.2931 110.655 74.3571C110.667 74.421 110.673 74.4693 110.673 74.5068C110.673 74.658 110.631 74.7766 110.549 74.8608Z" fill="#9D9D9D"/>
<path d="M114.396 69.6082H113.895V73.9655H114.396V69.6082Z" fill="#9D9D9D"/>
<path d="M58.3787 81.3344H61.4853V80.8276H60.5948C60.3297 80.8276 60.1332 80.7621 60.0022 80.6295C59.8728 80.4969 59.8073 80.3269 59.8073 80.1195C59.8073 79.8996 59.8821 79.7281 60.0334 79.6018C60.1831 79.4754 60.3874 79.4131 60.6432 79.4131C60.7726 79.4131 60.8833 79.4224 60.9722 79.4411C61.0611 79.4598 61.1453 79.4817 61.2233 79.5051V78.9624C61.1781 78.9421 61.1032 78.9234 60.9972 78.9078C60.8911 78.8922 60.7679 78.8828 60.6245 78.8828C60.4654 78.8828 60.3079 78.9078 60.1519 78.9561C59.9944 79.006 59.8525 79.0809 59.7246 79.1807C59.5967 79.2836 59.4922 79.4115 59.4143 79.5659C59.3347 79.7203 59.2942 79.9043 59.2942 80.1164C59.2942 80.2708 59.3191 80.408 59.3675 80.5313C59.4158 80.6529 59.4766 80.7527 59.5499 80.8307H58.1884C57.7253 80.8307 57.234 80.734 56.7178 80.5437V81.0381C56.841 81.074 56.9814 81.1145 57.1389 81.1598C57.298 81.2034 57.4461 81.2533 57.5865 81.3079C57.7268 81.3625 57.8454 81.4264 57.9405 81.4997C58.0356 81.573 58.084 81.6557 58.084 81.7477C58.084 81.8335 58.0434 81.9083 57.9623 81.9723C57.8812 82.0362 57.7705 82.0908 57.6301 82.1329C57.4913 82.175 57.3276 82.2078 57.1404 82.2296C56.9533 82.2514 56.7568 82.2624 56.5494 82.2624C55.9895 82.2624 55.5856 82.1781 55.3376 82.0097C55.0896 81.8413 54.9664 81.5761 54.9664 81.2159V80.3706H54.4658V81.311C54.4658 81.5184 54.497 81.7103 54.5578 81.8881C54.6187 82.0643 54.7278 82.2187 54.8838 82.3481C55.0397 82.4776 55.2518 82.5805 55.5185 82.6553C55.7852 82.7302 56.1236 82.7676 56.5353 82.7676C56.9049 82.7676 57.2169 82.7411 57.4726 82.6865C57.7268 82.632 57.9327 82.5587 58.0918 82.4666C58.2508 82.3762 58.3647 82.2701 58.4364 82.1516C58.5066 82.0347 58.5425 81.913 58.5425 81.7914C58.5425 81.7103 58.5253 81.6261 58.4926 81.5387C58.4629 81.4514 58.4239 81.3828 58.3787 81.3344Z" fill="#9D9D9D"/>
<path d="M74.9286 78.9061C74.6478 78.9061 74.3874 78.9638 74.1472 79.0792C73.907 79.1946 73.6934 79.3459 73.5031 79.5284C73.3144 79.714 73.1507 79.9198 73.015 80.1491C72.8793 80.3783 72.7717 80.6045 72.6953 80.8275C72.597 80.8275 72.5206 80.8103 72.4629 80.7776C72.4068 80.7448 72.3631 80.7011 72.3319 80.6434C72.3007 80.5873 72.282 80.5171 72.2742 80.4329C72.2664 80.3487 72.2617 80.2567 72.2617 80.1553V79.2898H71.7611V80.3814C71.7611 80.4828 71.7502 80.5639 71.7237 80.6232C71.6987 80.6824 71.6597 80.7261 71.6052 80.7573C71.5506 80.7869 71.4757 80.8072 71.3821 80.815C71.2886 80.8228 71.1747 80.8275 71.0406 80.8275H70.3638V80.305C70.3638 79.8668 70.253 79.5252 70.03 79.2773C69.8086 79.0309 69.4998 78.9061 69.1052 78.9061C68.7356 78.9061 68.4112 78.9981 68.1321 79.1837C67.8529 79.3693 67.6112 79.6297 67.4022 79.9682V76.9785H66.9016V80.829H66.2107C66.1047 80.829 66.0173 80.8119 65.9487 80.7791C65.8801 80.7464 65.8255 80.7027 65.7849 80.645C65.7444 80.5889 65.7163 80.5187 65.7023 80.4345C65.6867 80.3502 65.6805 80.2582 65.6805 80.1569V78.9856H65.1798V80.383C65.1798 80.4844 65.1689 80.5655 65.1471 80.6247C65.1253 80.684 65.0894 80.7277 65.0426 80.7588C64.9958 80.7885 64.9381 80.8088 64.8695 80.8165C64.8009 80.8243 64.7167 80.829 64.6184 80.829H63.2086C63.0261 80.829 62.9076 80.7932 62.8546 80.723C62.8015 80.6528 62.775 80.5312 62.775 80.3596V76.9785H62.2744V80.4937C62.2744 80.6559 62.2962 80.7916 62.3384 80.8992C62.3805 81.0068 62.4397 81.0941 62.5146 81.1581C62.5894 81.2236 62.6815 81.2688 62.7891 81.2953C62.8967 81.3218 63.0168 81.3359 63.1462 81.3359H64.7089C64.9366 81.3359 65.1284 81.3109 65.2859 81.2626C65.4418 81.2127 65.5573 81.1066 65.6305 80.9382C65.6633 81.052 65.7288 81.1472 65.8255 81.222C65.9237 81.2969 66.0501 81.3343 66.2091 81.3343H71.0234C71.2028 81.3343 71.3587 81.3296 71.4898 81.3187C71.6223 81.3094 71.7346 81.2891 71.8282 81.261C71.9218 81.2329 71.9997 81.1924 72.0605 81.1409C72.1214 81.0895 72.1697 81.0224 72.2071 80.9366C72.2321 80.9865 72.2586 81.0349 72.2898 81.0832C72.321 81.1316 72.36 81.1752 72.413 81.2111C72.4629 81.2485 72.53 81.2782 72.6111 81.3C72.6922 81.3218 72.7966 81.3343 72.923 81.3343H76.2183V80.305C76.2183 79.859 76.1044 79.5143 75.8799 79.2695C75.6569 79.0278 75.3387 78.9061 74.9286 78.9061ZM69.8631 80.829H67.4037C67.4646 80.67 67.5457 80.5078 67.6455 80.3409C67.7453 80.174 67.8623 80.0227 67.9964 79.8855C68.1305 79.7498 68.2802 79.636 68.4471 79.5471C68.6124 79.4582 68.7949 79.413 68.9898 79.413C69.152 79.413 69.2892 79.4395 69.4015 79.4925C69.5138 79.5455 69.6027 79.6173 69.6729 79.7062C69.7415 79.7966 69.7914 79.9027 69.8195 80.0259C69.8476 80.1506 69.8616 80.2816 69.8616 80.4204V80.829H69.8631ZM75.7224 80.829H73.2333C73.2942 80.6622 73.3752 80.4937 73.4766 80.3253C73.578 80.1569 73.6996 80.0056 73.84 79.8715C73.9803 79.7373 74.1347 79.6266 74.3047 79.5424C74.4732 79.4566 74.6556 79.4145 74.8506 79.4145C75.0096 79.4145 75.1438 79.4395 75.2561 79.4878C75.3683 79.5377 75.4588 79.6063 75.5274 79.6952C75.596 79.7841 75.6475 79.8917 75.6771 80.0149C75.7083 80.1397 75.7224 80.2738 75.7224 80.422V80.829Z" fill="#9D9D9D"/>
<path d="M78.1988 77.869V80.829H76.8264V81.3343H80.2917V76.9785H79.7927V80.829H78.6994V77.869H78.1988Z" fill="#9D9D9D"/>
<path d="M81.6468 76.9771H81.1462V81.3344H81.6468V76.9771Z" fill="#9D9D9D"/>
<path d="M84.746 80.734C84.6524 80.6264 84.6057 80.4939 84.6057 80.3395C84.6057 80.2787 84.615 80.2178 84.6337 80.1601C84.6509 80.1009 84.6821 80.0479 84.7242 80.0011C84.7663 79.9543 84.8209 79.9168 84.8832 79.8888C84.9456 79.8607 85.0236 79.8467 85.1172 79.8467C85.284 79.8467 85.4291 79.8732 85.5507 79.9262V79.449C85.518 79.4381 85.4587 79.4272 85.3745 79.4162C85.2887 79.4069 85.1874 79.4006 85.0688 79.4006C84.955 79.4006 84.8443 79.4193 84.7366 79.4583C84.629 79.4973 84.5324 79.5535 84.4497 79.6283C84.3655 79.7047 84.3 79.7999 84.2485 79.9153C84.197 80.0307 84.1721 80.1664 84.1721 80.3208C84.1721 80.5438 84.2392 80.7356 84.3733 80.8947H83.9272V81.3345H85.7644V80.8947H85.1905C84.9893 80.8947 84.8396 80.8417 84.746 80.734Z" fill="#9D9D9D"/>
<path d="M88.7102 78.4788C88.6837 78.5115 88.6588 78.549 88.6338 78.5911C88.6089 78.6347 88.587 78.6815 88.5667 78.7314C88.5465 78.7829 88.534 78.8328 88.5293 78.8812C88.757 78.9919 88.9769 79.1151 89.189 79.2508C89.4011 79.3864 89.5883 79.5252 89.7536 79.6656C89.9189 79.806 90.0499 79.9448 90.1512 80.0804C90.2511 80.2177 90.301 80.3378 90.301 80.4438C90.301 80.5951 90.2511 80.6965 90.1512 80.7495C90.0514 80.8025 89.9267 80.829 89.7754 80.829H87.316C87.1335 80.829 87.015 80.7932 86.962 80.723C86.909 80.6512 86.8824 80.5296 86.8824 80.3596V76.9785H86.3818V80.4937C86.3818 80.6559 86.4037 80.7916 86.4458 80.8992C86.4879 81.0084 86.5471 81.0941 86.6236 81.1581C86.6984 81.2236 86.7889 81.2688 86.898 81.2953C87.0072 81.3218 87.1257 81.3343 87.2552 81.3343H89.7629C89.975 81.3343 90.1481 81.3062 90.2822 81.2485C90.4164 81.1908 90.5193 81.1207 90.5942 81.0349C90.6675 80.9491 90.7174 80.8555 90.7439 80.7542C90.7704 80.6512 90.7829 80.5592 90.7829 80.4734C90.7829 80.3518 90.7563 80.2224 90.7018 80.0867C90.6472 79.951 90.5552 79.8091 90.4304 79.6625C90.3041 79.5159 90.1403 79.3631 89.9423 79.2055C89.7426 79.0465 89.4994 78.8843 89.2155 78.7174L91.009 77.9236V77.4292L88.7757 78.4117C88.757 78.4242 88.7367 78.446 88.7102 78.4788Z" fill="#9D9D9D"/>
<path d="M92.9194 80.7636C92.8289 80.8057 92.6963 80.8276 92.5248 80.8276H91.4331V81.3344H92.3595C92.4577 81.3344 92.5544 81.3297 92.6527 81.3219C92.7509 81.3141 92.8429 81.2939 92.9303 81.2642C93.0176 81.233 93.0956 81.1863 93.1689 81.1208C93.2391 81.0553 93.2983 80.9679 93.342 80.8588C93.4558 81.0381 93.5697 81.1613 93.6835 81.2315C93.7974 81.3001 93.9377 81.3344 94.1046 81.3344H95.5597V76.9771H95.059V80.8276H94.1062C94.05 80.8276 93.9954 80.812 93.9455 80.7823C93.8941 80.7511 93.841 80.7059 93.7865 80.6451C93.7319 80.5843 93.6726 80.5047 93.6118 80.4065C93.551 80.3098 93.4792 80.1928 93.3981 80.0587L92.6667 78.8438L92.1973 79.1355L92.8445 80.0946C92.9053 80.1835 92.9568 80.2677 92.9958 80.3457C93.0363 80.4221 93.0582 80.5001 93.0582 80.5765C93.0582 80.6591 93.0114 80.7215 92.9194 80.7636Z" fill="#9D9D9D"/>
<path d="M96.9149 76.9771H96.4143V81.3344H96.9149V76.9771Z" fill="#9D9D9D"/>
<path d="M99.8125 81.8631C99.8936 81.6697 99.9341 81.4202 99.9341 81.1161V80.5422C99.9341 80.3098 99.9154 80.0977 99.8764 79.9043C99.8375 79.711 99.7735 79.5441 99.6846 79.4037C99.5957 79.2634 99.4756 79.1527 99.3275 79.0747C99.1793 78.9951 98.9969 78.9546 98.7816 78.9546C98.5867 78.9546 98.4136 78.992 98.2623 79.0653C98.1126 79.1386 97.9863 79.2369 97.8849 79.3585C97.7835 79.4802 97.7056 79.619 97.6525 79.7765C97.5995 79.934 97.573 80.0931 97.573 80.2552C97.573 80.4595 97.6026 80.6295 97.6619 80.7683C97.7212 80.9071 97.8007 81.0179 97.9005 81.1005C98.0003 81.1847 98.1188 81.244 98.2545 81.2799C98.3902 81.3173 98.5368 81.3345 98.6959 81.3345C98.8705 81.3345 99.0187 81.3157 99.1357 81.2799C99.2526 81.2424 99.3493 81.2035 99.4226 81.1582V81.2736C99.4226 81.4608 99.3899 81.6089 99.3244 81.7197C99.2589 81.8304 99.1684 81.913 99.053 81.9707C98.9376 82.0269 98.7988 82.0643 98.6382 82.0799C98.4775 82.0955 98.2998 82.1049 98.1048 82.1049H97.9161V82.6117H98.1719C98.4448 82.6117 98.6912 82.5914 98.9111 82.5493C99.131 82.5088 99.3166 82.4324 99.4663 82.3201C99.6144 82.2078 99.7299 82.055 99.8125 81.8631ZM99.4211 80.6514C99.3602 80.7013 99.2698 80.7449 99.1528 80.7855C99.0359 80.826 98.8986 80.8463 98.7442 80.8463C98.5399 80.8463 98.3762 80.7964 98.2498 80.6966C98.1235 80.5968 98.0611 80.4315 98.0611 80.1991C98.0611 80.1133 98.0752 80.026 98.1017 79.9371C98.1282 79.8482 98.1688 79.7655 98.2233 79.6923C98.2779 79.619 98.3497 79.5581 98.437 79.5098C98.5243 79.4599 98.6319 79.4365 98.7567 79.4365C98.8783 79.4365 98.9813 79.463 99.0686 79.5129C99.1544 79.5644 99.223 79.633 99.276 79.7203C99.3291 79.8077 99.3665 79.9121 99.3883 80.0354C99.4101 80.157 99.4226 80.288 99.4226 80.4252V80.6514H99.4211Z" fill="#9D9D9D"/>
<path d="M108.261 74.5691H107.741V75.2023L108.261 74.9028V74.5691Z" fill="#9D9D9D"/>
<path d="M107.467 74.5691H106.948V75.2023L107.467 74.9028V74.5691Z" fill="#9D9D9D"/>
<path d="M102.684 69.9856H102.164V70.6203L102.684 70.3193V69.9856Z" fill="#9D9D9D"/>
<path d="M101.89 69.9856H101.372V70.6203L101.89 70.3193V69.9856Z" fill="#9D9D9D"/>
<path d="M77.982 69.9856H77.4626V70.6203L77.982 70.3193V69.9856Z" fill="#9D9D9D"/>
<path d="M77.1882 69.9856H76.6704V70.6203L77.1882 70.3193V69.9856Z" fill="#9D9D9D"/>
<path d="M81.3195 74.563H80.8018V75.1962L81.3195 74.8967V74.563Z" fill="#9D9D9D"/>
<path d="M80.5271 74.563H80.0078V75.1962L80.5271 74.8967V74.563Z" fill="#9D9D9D"/>
<path d="M68.2679 74.563H67.7485V75.1962L68.2679 74.8967V74.563Z" fill="#9D9D9D"/>
<path d="M67.4738 74.563H66.9561V75.1962L67.4738 74.8967V74.563Z" fill="#9D9D9D"/>
<path d="M69.7805 74.563H69.2627V75.1962L69.7805 74.8967V74.563Z" fill="#9D9D9D"/>
<path d="M92.712 77.6367H92.1926V78.2715L92.712 77.972V77.6367Z" fill="#9D9D9D"/>
<path d="M65.7117 77.6367H65.1924V78.2715L65.7117 77.972V77.6367Z" fill="#9D9D9D"/>
<path d="M57.6254 70.6267H57.1077V71.2614L57.6254 70.9604V70.6267Z" fill="#9D9D9D"/>
<path d="M56.8333 70.6267H56.314V71.2614L56.8333 70.9604V70.6267Z" fill="#9D9D9D"/>
<path d="M57.1202 83.1575H56.6008V83.7922L57.1202 83.4912V83.1575Z" fill="#9D9D9D"/>
<path d="M56.3262 83.1575H55.8069V83.7922L56.3262 83.4912V83.1575Z" fill="#9D9D9D"/>
<path d="M63.6187 70.2664H63.0994V70.9011L63.6187 70.6017V70.2664Z" fill="#9D9D9D"/>
<path d="M74.4995 52.2302H68.8181V65.976H74.4995C79.2234 65.976 82.3705 63.2297 82.3705 59.1031C82.3705 54.975 79.2234 52.2302 74.4995 52.2302ZM74.4995 62.8647H72.8495V55.3384H74.4995C76.7078 55.3384 78.205 56.8184 78.205 59.1031C78.205 61.3863 76.7078 62.8647 74.4995 62.8647Z" fill="#9D9D9D"/>
<path d="M93.0658 52.2302H86.9992L82.698 65.976H87.0569L87.8398 63.2874L91.6638 61.0791H88.42L90.0341 55.7439L91.6638 61.0791L93.0081 65.976H97.3671L93.0658 52.2302Z" fill="#9D9D9D"/>
<path d="M114.945 52.2302H108.878L104.577 65.976H108.936L109.719 63.2874L113.543 61.0791H110.299L111.913 55.7439L113.543 61.0791L114.887 65.976H119.246L114.945 52.2302Z" fill="#9D9D9D"/>
<path d="M98.8862 54.635V65.9745H103.052V52.2302L98.8862 54.635Z" fill="#9D9D9D"/>
<path d="M61.1579 57.2988C59.6405 57.1256 58.488 56.9713 58.488 55.9934C58.488 55.2636 59.2942 54.7255 60.4655 54.7255C61.8269 54.7255 62.8422 55.4913 62.8266 56.5471L65.927 54.7567C65.0942 52.9398 63.0028 51.7515 60.3313 51.7515C56.8941 51.7515 54.455 53.6323 54.455 56.455C54.455 59.7005 57.1078 60.41 59.9461 60.7376C61.4059 60.9294 62.6161 61.0838 62.6161 62.0803C62.6161 62.9053 61.8098 63.4823 60.6011 63.4823C59.1055 63.4823 58.0123 62.6199 57.9905 61.4534V61.4471H54.3801C54.3801 62.1177 54.5174 62.7416 54.7685 63.3124C55.6106 65.2072 57.7487 66.4564 60.467 66.4564C64.0945 66.4564 66.6475 64.4617 66.6475 61.5423C66.6459 58.2969 63.9027 57.5873 61.1579 57.2988Z" fill="#9D9D9D"/>
</g>
<defs>
<linearGradient id="paint0_linear_2021_7155" x1="36.8071" y1="59.517" x2="53.569" y2="68.4329" gradientUnits="userSpaceOnUse">
<stop stop-color="#ADCC54"/>
<stop offset="0.5" stop-color="#51B187"/>
<stop offset="1" stop-color="#2A346C"/>
</linearGradient>
<linearGradient id="paint1_linear_2021_7155" x1="30.8663" y1="70.514" x2="47.6293" y2="79.4304" gradientUnits="userSpaceOnUse">
<stop stop-color="#ADCC54"/>
<stop offset="0.5" stop-color="#51B187"/>
<stop offset="1" stop-color="#2A346C"/>
</linearGradient>
<linearGradient id="paint2_linear_2021_7155" x1="31.9858" y1="68.6077" x2="48.7457" y2="77.5225" gradientUnits="userSpaceOnUse">
<stop stop-color="#ADCC54"/>
<stop offset="0.5" stop-color="#51B187"/>
<stop offset="1" stop-color="#2A346C"/>
</linearGradient>
<linearGradient id="paint3_linear_2021_7155" x1="33.8235" y1="64.9558" x2="50.5864" y2="73.8723" gradientUnits="userSpaceOnUse">
<stop stop-color="#ADCC54"/>
<stop offset="0.5" stop-color="#51B187"/>
<stop offset="1" stop-color="#2A346C"/>
</linearGradient>
<linearGradient id="paint4_linear_2021_7155" x1="27.6555" y1="76.5507" x2="44.4184" y2="85.4671" gradientUnits="userSpaceOnUse">
<stop stop-color="#ADCC54"/>
<stop offset="0.5" stop-color="#51B187"/>
<stop offset="1" stop-color="#2A346C"/>
</linearGradient>
<linearGradient id="paint5_linear_2021_7155" x1="30.6739" y1="70.934" x2="47.4312" y2="79.8474" gradientUnits="userSpaceOnUse">
<stop stop-color="#ADCC54"/>
<stop offset="0.5" stop-color="#51B187"/>
<stop offset="1" stop-color="#2A346C"/>
</linearGradient>
<linearGradient id="paint6_linear_2021_7155" x1="29.3576" y1="73.5146" x2="46.1176" y2="82.4296" gradientUnits="userSpaceOnUse">
<stop stop-color="#ADCC54"/>
<stop offset="0.5" stop-color="#51B187"/>
<stop offset="1" stop-color="#2A346C"/>
</linearGradient>
<linearGradient id="paint7_linear_2021_7155" x1="32.0071" y1="68.3708" x2="48.7701" y2="77.2872" gradientUnits="userSpaceOnUse">
<stop stop-color="#ADCC54"/>
<stop offset="0.5" stop-color="#51B187"/>
<stop offset="1" stop-color="#2A346C"/>
</linearGradient>
<linearGradient id="paint8_linear_2021_7155" x1="25.9776" y1="79.8694" x2="42.7376" y2="88.7844" gradientUnits="userSpaceOnUse">
<stop stop-color="#ADCC54"/>
<stop offset="0.5" stop-color="#51B187"/>
<stop offset="1" stop-color="#2A346C"/>
</linearGradient>
<linearGradient id="paint9_linear_2021_7155" x1="30.7729" y1="70.7563" x2="47.5356" y2="79.6726" gradientUnits="userSpaceOnUse">
<stop stop-color="#ADCC54"/>
<stop offset="0.5" stop-color="#51B187"/>
<stop offset="1" stop-color="#2A346C"/>
</linearGradient>
<linearGradient id="paint10_linear_2021_7155" x1="26.3424" y1="79.0185" x2="43.1053" y2="87.9349" gradientUnits="userSpaceOnUse">
<stop stop-color="#ADCC54"/>
<stop offset="0.5" stop-color="#51B187"/>
<stop offset="1" stop-color="#2A346C"/>
</linearGradient>
<linearGradient id="paint11_linear_2021_7155" x1="23.747" y1="84.0628" x2="40.5077" y2="92.9781" gradientUnits="userSpaceOnUse">
<stop stop-color="#ADCC54"/>
<stop offset="0.5" stop-color="#51B187"/>
<stop offset="1" stop-color="#2A346C"/>
</linearGradient>
<linearGradient id="paint12_linear_2021_7155" x1="24.102" y1="68.0102" x2="45.0845" y2="82.7912" gradientUnits="userSpaceOnUse">
<stop stop-color="#ADCC54"/>
<stop offset="0.5" stop-color="#51B187"/>
<stop offset="1" stop-color="#2A346C"/>
</linearGradient>
<linearGradient id="paint13_linear_2021_7155" x1="30.5226" y1="58.9376" x2="51.5081" y2="73.7206" gradientUnits="userSpaceOnUse">
<stop stop-color="#ADCC54"/>
<stop offset="0.5" stop-color="#51B187"/>
<stop offset="1" stop-color="#2A346C"/>
</linearGradient>
<linearGradient id="paint14_linear_2021_7155" x1="28.5916" y1="61.6317" x2="49.5744" y2="76.4129" gradientUnits="userSpaceOnUse">
<stop stop-color="#ADCC54"/>
<stop offset="0.5" stop-color="#51B187"/>
<stop offset="1" stop-color="#2A346C"/>
</linearGradient>
<linearGradient id="paint15_linear_2021_7155" x1="18.8265" y1="75.5414" x2="39.812" y2="90.3244" gradientUnits="userSpaceOnUse">
<stop stop-color="#ADCC54"/>
<stop offset="0.5" stop-color="#51B187"/>
<stop offset="1" stop-color="#2A346C"/>
</linearGradient>
<linearGradient id="paint16_linear_2021_7155" x1="21.7169" y1="71.4995" x2="42.6958" y2="86.278" gradientUnits="userSpaceOnUse">
<stop stop-color="#ADCC54"/>
<stop offset="0.5" stop-color="#51B187"/>
<stop offset="1" stop-color="#2A346C"/>
</linearGradient>
<linearGradient id="paint17_linear_2021_7155" x1="23.6428" y1="68.7684" x2="44.6318" y2="83.554" gradientUnits="userSpaceOnUse">
<stop stop-color="#ADCC54"/>
<stop offset="0.5" stop-color="#51B187"/>
<stop offset="1" stop-color="#2A346C"/>
</linearGradient>
<linearGradient id="paint18_linear_2021_7155" x1="43.5418" y1="72.3035" x2="44.7837" y2="52.4327" gradientUnits="userSpaceOnUse">
<stop stop-color="#6BB5E3"/>
<stop offset="0.5" stop-color="#6058A0"/>
<stop offset="1" stop-color="#2A346C"/>
</linearGradient>
<linearGradient id="paint19_linear_2021_7155" x1="37.5967" y1="71.9319" x2="38.8386" y2="52.0612" gradientUnits="userSpaceOnUse">
<stop stop-color="#6BB5E3"/>
<stop offset="0.5" stop-color="#6058A0"/>
<stop offset="1" stop-color="#2A346C"/>
</linearGradient>
<linearGradient id="paint20_linear_2021_7155" x1="37.5384" y1="71.9287" x2="38.7804" y2="52.058" gradientUnits="userSpaceOnUse">
<stop stop-color="#6BB5E3"/>
<stop offset="0.5" stop-color="#6058A0"/>
<stop offset="1" stop-color="#2A346C"/>
</linearGradient>
<linearGradient id="paint21_linear_2021_7155" x1="31.4228" y1="71.59" x2="32.6647" y2="51.7197" gradientUnits="userSpaceOnUse">
<stop stop-color="#6BB5E3"/>
<stop offset="0.5" stop-color="#6058A0"/>
<stop offset="1" stop-color="#2A346C"/>
</linearGradient>
<linearGradient id="paint22_linear_2021_7155" x1="31.8115" y1="71.5702" x2="33.0535" y2="51.6995" gradientUnits="userSpaceOnUse">
<stop stop-color="#6BB5E3"/>
<stop offset="0.5" stop-color="#6058A0"/>
<stop offset="1" stop-color="#2A346C"/>
</linearGradient>
<linearGradient id="paint23_linear_2021_7155" x1="26.379" y1="71.2308" x2="27.6209" y2="51.36" gradientUnits="userSpaceOnUse">
<stop stop-color="#6BB5E3"/>
<stop offset="0.5" stop-color="#6058A0"/>
<stop offset="1" stop-color="#2A346C"/>
</linearGradient>
<linearGradient id="paint24_linear_2021_7155" x1="25.9337" y1="71.2325" x2="27.1752" y2="51.3679" gradientUnits="userSpaceOnUse">
<stop stop-color="#6BB5E3"/>
<stop offset="0.5" stop-color="#6058A0"/>
<stop offset="1" stop-color="#2A346C"/>
</linearGradient>
<linearGradient id="paint25_linear_2021_7155" x1="25.4721" y1="71.1741" x2="26.7141" y2="51.3034" gradientUnits="userSpaceOnUse">
<stop stop-color="#6BB5E3"/>
<stop offset="0.5" stop-color="#6058A0"/>
<stop offset="1" stop-color="#2A346C"/>
</linearGradient>
<linearGradient id="paint26_linear_2021_7155" x1="20.5501" y1="70.9105" x2="21.792" y2="51.0402" gradientUnits="userSpaceOnUse">
<stop stop-color="#6BB5E3"/>
<stop offset="0.5" stop-color="#6058A0"/>
<stop offset="1" stop-color="#2A346C"/>
</linearGradient>
<linearGradient id="paint27_linear_2021_7155" x1="18.7155" y1="70.7516" x2="19.9574" y2="50.8809" gradientUnits="userSpaceOnUse">
<stop stop-color="#6BB5E3"/>
<stop offset="0.5" stop-color="#6058A0"/>
<stop offset="1" stop-color="#2A346C"/>
</linearGradient>
<linearGradient id="paint28_linear_2021_7155" x1="38.0055" y1="71.1288" x2="38.0055" y2="51.4715" gradientUnits="userSpaceOnUse">
<stop stop-color="#6BB5E3"/>
<stop offset="0.5" stop-color="#6058A0"/>
<stop offset="0.9957" stop-color="#2A346C"/>
<stop offset="1" stop-color="#2A346C"/>
</linearGradient>
<linearGradient id="paint29_linear_2021_7155" x1="32.2981" y1="71.1287" x2="32.2981" y2="51.4715" gradientUnits="userSpaceOnUse">
<stop stop-color="#6BB5E3"/>
<stop offset="0.5" stop-color="#6058A0"/>
<stop offset="0.9957" stop-color="#2A346C"/>
<stop offset="1" stop-color="#2A346C"/>
</linearGradient>
<linearGradient id="paint30_linear_2021_7155" x1="32.2981" y1="71.1287" x2="32.2981" y2="51.4715" gradientUnits="userSpaceOnUse">
<stop stop-color="#6BB5E3"/>
<stop offset="0.5" stop-color="#6058A0"/>
<stop offset="0.9957" stop-color="#2A346C"/>
<stop offset="1" stop-color="#2A346C"/>
</linearGradient>
<linearGradient id="paint31_linear_2021_7155" x1="32.2981" y1="71.1287" x2="32.2981" y2="51.4714" gradientUnits="userSpaceOnUse">
<stop stop-color="#6BB5E3"/>
<stop offset="0.5" stop-color="#6058A0"/>
<stop offset="0.9957" stop-color="#2A346C"/>
<stop offset="1" stop-color="#2A346C"/>
</linearGradient>
<linearGradient id="paint32_linear_2021_7155" x1="26.5945" y1="71.1287" x2="26.5945" y2="51.4715" gradientUnits="userSpaceOnUse">
<stop stop-color="#6BB5E3"/>
<stop offset="0.5" stop-color="#6058A0"/>
<stop offset="0.9957" stop-color="#2A346C"/>
<stop offset="1" stop-color="#2A346C"/>
</linearGradient>
<linearGradient id="paint33_linear_2021_7155" x1="26.5945" y1="71.1287" x2="26.5945" y2="51.4714" gradientUnits="userSpaceOnUse">
<stop stop-color="#6BB5E3"/>
<stop offset="0.5" stop-color="#6058A0"/>
<stop offset="0.9957" stop-color="#2A346C"/>
<stop offset="1" stop-color="#2A346C"/>
</linearGradient>
<linearGradient id="paint34_linear_2021_7155" x1="20.8864" y1="71.1287" x2="20.8864" y2="51.4714" gradientUnits="userSpaceOnUse">
<stop stop-color="#6BB5E3"/>
<stop offset="0.5" stop-color="#6058A0"/>
<stop offset="0.9957" stop-color="#2A346C"/>
<stop offset="1" stop-color="#2A346C"/>
</linearGradient>
<linearGradient id="paint35_linear_2021_7155" x1="13.5182" y1="71.1356" x2="13.5182" y2="51.4845" gradientUnits="userSpaceOnUse">
<stop stop-color="#6BB5E3"/>
<stop offset="0.5" stop-color="#6058A0"/>
<stop offset="0.9957" stop-color="#2A346C"/>
<stop offset="1" stop-color="#2A346C"/>
</linearGradient>
<linearGradient id="paint36_linear_2021_7155" x1="41.6331" y1="80.4564" x2="16.6838" y2="93.9803" gradientUnits="userSpaceOnUse">
<stop stop-color="#F2BF62"/>
<stop offset="0.5" stop-color="#E2793F"/>
<stop offset="1" stop-color="#2A346C"/>
</linearGradient>
<linearGradient id="paint37_linear_2021_7155" x1="35.856" y1="69.7972" x2="10.9067" y2="83.3211" gradientUnits="userSpaceOnUse">
<stop stop-color="#F2BF62"/>
<stop offset="0.5" stop-color="#E2793F"/>
<stop offset="1" stop-color="#2A346C"/>
</linearGradient>
<linearGradient id="paint38_linear_2021_7155" x1="39.6567" y1="76.8095" x2="14.7093" y2="90.3324" gradientUnits="userSpaceOnUse">
<stop stop-color="#F2BF62"/>
<stop offset="0.5" stop-color="#E2793F"/>
<stop offset="1" stop-color="#2A346C"/>
</linearGradient>
<linearGradient id="paint39_linear_2021_7155" x1="34.5895" y1="67.4656" x2="9.64612" y2="80.9862" gradientUnits="userSpaceOnUse">
<stop stop-color="#F2BF62"/>
<stop offset="0.5" stop-color="#E2793F"/>
<stop offset="1" stop-color="#2A346C"/>
</linearGradient>
<linearGradient id="paint40_linear_2021_7155" x1="31.8015" y1="62.3139" x2="6.85223" y2="75.8378" gradientUnits="userSpaceOnUse">
<stop stop-color="#F2BF62"/>
<stop offset="0.5" stop-color="#E2793F"/>
<stop offset="1" stop-color="#2A346C"/>
</linearGradient>
<linearGradient id="paint41_linear_2021_7155" x1="36.6753" y1="71.308" x2="11.726" y2="84.8319" gradientUnits="userSpaceOnUse">
<stop stop-color="#F2BF62"/>
<stop offset="0.5" stop-color="#E2793F"/>
<stop offset="1" stop-color="#2A346C"/>
</linearGradient>
<linearGradient id="paint42_linear_2021_7155" x1="30.447" y1="59.8198" x2="5.49776" y2="73.3437" gradientUnits="userSpaceOnUse">
<stop stop-color="#F2BF62"/>
<stop offset="0.5" stop-color="#E2793F"/>
<stop offset="1" stop-color="#2A346C"/>
</linearGradient>
<linearGradient id="paint43_linear_2021_7155" x1="31.5068" y1="61.7731" x2="6.55754" y2="75.297" gradientUnits="userSpaceOnUse">
<stop stop-color="#F2BF62"/>
<stop offset="0.5" stop-color="#E2793F"/>
<stop offset="1" stop-color="#2A346C"/>
</linearGradient>
<linearGradient id="paint44_linear_2021_7155" x1="33.2656" y1="78.3655" x2="15.6325" y2="88.6265" gradientUnits="userSpaceOnUse">
<stop stop-color="#F2BF62"/>
<stop offset="0.5" stop-color="#E2793F"/>
<stop offset="1" stop-color="#2A346C"/>
</linearGradient>
<linearGradient id="paint45_linear_2021_7155" x1="28.6652" y1="70.3504" x2="11.0345" y2="80.61" gradientUnits="userSpaceOnUse">
<stop stop-color="#F2BF62"/>
<stop offset="0.5" stop-color="#E2793F"/>
<stop offset="1" stop-color="#2A346C"/>
</linearGradient>
<linearGradient id="paint46_linear_2021_7155" x1="34.5999" y1="80.7123" x2="16.967" y2="90.9733" gradientUnits="userSpaceOnUse">
<stop stop-color="#F2BF62"/>
<stop offset="0.5" stop-color="#E2793F"/>
<stop offset="1" stop-color="#2A346C"/>
</linearGradient>
<linearGradient id="paint47_linear_2021_7155" x1="31.8097" y1="75.8113" x2="14.1794" y2="86.0707" gradientUnits="userSpaceOnUse">
<stop stop-color="#F2BF62"/>
<stop offset="0.5" stop-color="#E2793F"/>
<stop offset="1" stop-color="#2A346C"/>
</linearGradient>
<linearGradient id="paint48_linear_2021_7155" x1="31.7454" y1="75.766" x2="14.1155" y2="86.0252" gradientUnits="userSpaceOnUse">
<stop stop-color="#F2BF62"/>
<stop offset="0.5" stop-color="#E2793F"/>
<stop offset="1" stop-color="#2A346C"/>
</linearGradient>
<linearGradient id="paint49_linear_2021_7155" x1="30.0254" y1="72.8498" x2="12.3924" y2="83.1108" gradientUnits="userSpaceOnUse">
<stop stop-color="#F2BF62"/>
<stop offset="0.5" stop-color="#E2793F"/>
<stop offset="1" stop-color="#2A346C"/>
</linearGradient>
<linearGradient id="paint50_linear_2021_7155" x1="27.161" y1="67.9268" x2="9.528" y2="78.1878" gradientUnits="userSpaceOnUse">
<stop stop-color="#F2BF62"/>
<stop offset="0.5" stop-color="#E2793F"/>
<stop offset="1" stop-color="#2A346C"/>
</linearGradient>
<linearGradient id="paint51_linear_2021_7155" x1="27.1499" y1="67.9099" x2="9.51696" y2="78.1709" gradientUnits="userSpaceOnUse">
<stop stop-color="#F2BF62"/>
<stop offset="0.5" stop-color="#E2793F"/>
<stop offset="1" stop-color="#2A346C"/>
</linearGradient>
<linearGradient id="paint52_linear_2021_7155" x1="22.3873" y1="59.7245" x2="4.75426" y2="69.9855" gradientUnits="userSpaceOnUse">
<stop stop-color="#F2BF62"/>
<stop offset="0.5" stop-color="#E2793F"/>
<stop offset="1" stop-color="#2A346C"/>
</linearGradient>
<linearGradient id="paint53_linear_2021_7155" x1="28.2702" y1="69.8348" x2="10.6372" y2="80.0958" gradientUnits="userSpaceOnUse">
<stop stop-color="#F2BF62"/>
<stop offset="0.5" stop-color="#E2793F"/>
<stop offset="1" stop-color="#2A346C"/>
</linearGradient>
</defs>
</svg>
